<?xml version="1.0" encoding="UTF-8"?>
<svg version="1.1" xmlns="http://www.w3.org/2000/svg" width="1002" height="668">
<path d="M0 0 C330.33 0 660.66 0 1001 0 C1001 220.11 1001 440.22 1001 667 C670.67 667 340.34 667 0 667 C0 446.89 0 226.78 0 0 Z " fill="#CE1125" transform="translate(1,1)"/>
<path d="M0 0 C330.33 0 660.66 0 1001 0 C1001 73.59 1001 147.18 1001 223 C991.76 223 982.52 223 973 223 C973 186.7 973 150.4 973 113 C955.29047165 113.00333092 955.29047165 113.00333092 937.22317505 113.00672913 C929.21243795 113.00820146 921.20170085 113.00966918 913.19096375 113.0111084 C911.62998375 113.01138889 911.62998375 113.01138889 910.0374688 113.01167505 C841.1078957 113.02404265 772.17832264 113.03521494 703.24874878 113.04234314 C701.903868 113.04248259 700.55898723 113.04262204 699.21410645 113.04276149 C670.98124246 113.04568453 642.74837846 113.04840121 614.51551442 113.05087968 C600.33203557 113.05212502 586.14855672 113.05340999 571.96507788 113.05473244 C569.82562811 113.05493169 567.68617833 113.05512981 565.54672856 113.05532788 C532.62398657 113.05838585 499.70124495 113.06229084 466.77850342 113.06866455 C465.71767196 113.0688699 465.71767196 113.0688699 464.63540957 113.0690794 C453.23378805 113.07129161 441.83216655 113.07357528 430.43054505 113.07586844 C397.56797941 113.08247686 364.70541406 113.08855205 331.84284782 113.09113979 C330.82795194 113.0912201 330.82795194 113.0912201 329.79255311 113.09130202 C314.93526512 113.09246811 300.07797713 113.09336282 285.22068912 113.09400098 C279.24151567 113.09426258 273.26234223 113.09456376 267.28316879 113.09487724 C265.97507829 113.09494467 264.66698778 113.09501209 263.31925817 113.09508156 C242.28784725 113.0962619 221.25643845 113.10089627 200.2250284 113.10683203 C179.06609967 113.11272972 157.90717304 113.11496536 136.74824353 113.11350138 C124.18729174 113.11274253 111.62634765 113.11475307 99.06539726 113.12079754 C90.65943427 113.12456509 82.25347627 113.1246513 73.84751292 113.12183181 C69.06773057 113.12033139 64.2879627 113.12034806 59.50818194 113.12488318 C55.14066297 113.12899526 50.77316946 113.12830826 46.40565078 113.12413998 C44.85378224 113.12343868 43.3019117 113.12433272 41.75004572 113.12723524 C27.80100531 113.15162312 13.96180374 112.53699245 0 112 C0 75.04 0 38.08 0 0 Z " fill="#012A7E" transform="translate(1,1)"/>
<path d="M0 0 C1.69309548 -0.0007434 3.38619082 -0.00192592 5.07928574 -0.0034965 C9.65902138 -0.00651223 14.23873418 -0.0034359 18.81846809 0.00078164 C23.82816837 0.00426068 28.83786669 0.00183663 33.84756744 0.00020415 C42.60311055 -0.00185647 51.35864683 -0.00024845 60.11418915 0.00384235 C73.13311105 0.00990809 86.1520287 0.01017532 99.17095176 0.00930037 C121.07691122 0.0079901 142.98286782 0.01130667 164.88882637 0.01731777 C186.56524609 0.0232516 208.24166457 0.02709513 229.9180851 0.02817059 C230.59267711 0.028205 231.26726912 0.02823941 231.96230331 0.02827486 C238.12417286 0.02858809 244.28604242 0.02887578 250.44791198 0.02913284 C265.76176693 0.02977202 281.07562185 0.03073121 296.38947678 0.03190804 C297.08663404 0.03196135 297.78379131 0.03201467 298.50207456 0.0320696 C332.36811261 0.03468756 366.23414984 0.04099365 400.1001873 0.04760838 C411.84414481 0.04990015 423.58810233 0.05217557 435.33205986 0.05438328 C436.42468616 0.0545887 436.42468616 0.0545887 437.53938571 0.05479828 C471.43768325 0.06114903 505.33598094 0.0648701 539.23427892 0.06791807 C541.43651755 0.06811614 543.63875617 0.06831533 545.8409948 0.06851475 C560.43603961 0.0698346 575.03108442 0.07110924 589.62612923 0.07235361 C618.66361431 0.07482975 647.70109936 0.07757141 676.7385844 0.08049566 C678.12124809 0.0806349 679.50391178 0.08077395 680.88657547 0.08091282 C752.25367328 0.08808236 823.62077027 0.09948537 894.98786736 0.11193943 C895.98171407 0.11211283 896.97556079 0.11228624 897.99952408 0.1124649 C917.52428945 0.11587918 937.04905477 0.11948145 956.57382011 0.12304783 C956.57382011 37.08304783 956.57382011 74.04304783 956.57382011 112.12304783 C626.24382011 112.12304783 295.91382011 112.12304783 -44.42617989 112.12304783 C-44.42617989 75.49304783 -44.42617989 38.86304783 -44.42617989 1.12304783 C-14.54108346 -0.02637896 -14.54108346 -0.02637896 0 0 Z " fill="#012A7E" transform="translate(45.42617988586426,555.8769521713257)"/>
<path d="M0 0 C321.09 0 642.18 0 973 0 C973 36.3 973 72.6 973 110 C491.365 110.495 491.365 110.495 0 111 C0 74.37 0 37.74 0 0 Z " fill="#FEFEFE" transform="translate(1,446)"/>
<path d="M0 0 C481.635 0.495 481.635 0.495 973 1 C973 37.3 973 73.6 973 111 C651.91 111 330.82 111 0 111 C0 74.37 0 37.74 0 0 Z " fill="#FEFEFE" transform="translate(1,113)"/>
<path d="M0 0 C330.33 0 660.66 0 1001 0 C1001 0.99 1001 1.98 1001 3 C998 5 998 5 994 5 C994 5.66 994 6.32 994 7 C993.34 7 992.68 7 992 7 C992 7.66 992 8.32 992 9 C991.34 9 990.68 9 990 9 C990 9.66 990 10.32 990 11 C988.35546875 12.69140625 988.35546875 12.69140625 986.1875 14.5625 C985.47980469 15.18253906 984.77210938 15.80257813 984.04296875 16.44140625 C982 18 982 18 979 19 C978.40495318 20.89369683 978.40495318 20.89369683 978 23 C976.00545065 26.05175977 975.09784411 27.2847233 972 29 C966.84571749 29.90986422 961.71648202 29.79480082 956.50329781 29.73828697 C954.88466636 29.74272516 953.26604037 29.74979708 951.64743054 29.75926596 C947.18094519 29.77771377 942.71527671 29.75860359 938.2488521 29.73359716 C933.3969702 29.71302172 928.54517259 29.72721098 923.69327438 29.7370621 C915.18375701 29.7495179 906.67449103 29.73961946 898.16500282 29.71523285 C885.51169394 29.67907136 872.85854407 29.67721346 860.20519293 29.68248478 C838.92190477 29.69037471 817.63872823 29.67029507 796.35547256 29.63438034 C775.27655613 29.59890145 754.19768616 29.57578937 733.11874008 29.56926346 C731.80905481 29.56885102 730.49936954 29.56843858 729.14999684 29.56801365 C723.16686867 29.56618754 717.18374048 29.56451787 711.20061223 29.56297321 C697.00736177 29.55928375 682.81411228 29.55358052 668.62086296 29.54683876 C667.94413299 29.54651886 667.26740302 29.54619895 666.57016608 29.54586935 C633.64669497 29.53013812 600.7232542 29.4922919 567.79980469 29.45263672 C556.37384057 29.43888683 544.94787634 29.42523468 533.52191162 29.4119873 C532.81327751 29.41116561 532.10464341 29.41034391 531.37453554 29.40949732 C498.43530278 29.3714367 465.49606482 29.34908054 432.55681585 29.33077853 C430.41851966 29.32959015 428.28022348 29.32839499 426.1419273 29.32719846 C411.97139221 29.31927981 397.800857 29.31163191 383.63032167 29.3041653 C355.43418774 29.28930608 327.23805481 29.27285597 299.04192243 29.25531302 C297.6991324 29.25447758 296.35634237 29.25364325 295.01355233 29.25281004 C225.6437766 29.20975499 156.2740296 29.14133108 86.90428162 29.06665039 C85.93768544 29.06560997 84.97108926 29.06456954 83.97520228 29.06349759 C64.98346741 29.04300955 45.9917339 29.02139741 27 29 C27 56.06 27 83.12 27 111 C339.18 111 651.36 111 973 111 C973 111.66 973 112.32 973 113 C883.08291672 113.01714464 793.16583325 113.03304457 703.24874878 113.04234314 C701.903868 113.04248259 700.55898723 113.04262204 699.21410645 113.04276149 C670.98124246 113.04568453 642.74837846 113.04840121 614.51551442 113.05087968 C600.33203557 113.05212502 586.14855672 113.05340999 571.96507788 113.05473244 C569.82562811 113.05493169 567.68617833 113.05512981 565.54672856 113.05532788 C532.62398657 113.05838585 499.70124495 113.06229084 466.77850342 113.06866455 C465.71767196 113.0688699 465.71767196 113.0688699 464.63540957 113.0690794 C453.23378805 113.07129161 441.83216655 113.07357528 430.43054505 113.07586844 C397.56797941 113.08247686 364.70541406 113.08855205 331.84284782 113.09113979 C330.82795194 113.0912201 330.82795194 113.0912201 329.79255311 113.09130202 C314.93526512 113.09246811 300.07797713 113.09336282 285.22068912 113.09400098 C279.24151567 113.09426258 273.26234223 113.09456376 267.28316879 113.09487724 C265.97507829 113.09494467 264.66698778 113.09501209 263.31925817 113.09508156 C242.28784725 113.0962619 221.25643845 113.10089627 200.2250284 113.10683203 C179.06609967 113.11272972 157.90717304 113.11496536 136.74824353 113.11350138 C124.18729174 113.11274253 111.62634765 113.11475307 99.06539726 113.12079754 C90.65943427 113.12456509 82.25347627 113.1246513 73.84751292 113.12183181 C69.06773057 113.12033139 64.2879627 113.12034806 59.50818194 113.12488318 C55.14066297 113.12899526 50.77316946 113.12830826 46.40565078 113.12413998 C44.85378224 113.12343868 43.3019117 113.12433272 41.75004572 113.12723524 C27.80100531 113.15162312 13.96180374 112.53699245 0 112 C0 75.04 0 38.08 0 0 Z " fill="#7C8DBC" transform="translate(1,1)"/>
<path d="M0 0 C9.24 0 18.48 0 28 0 C28 36.96 28 73.92 28 112 C-301.34 112 -630.68 112 -970 112 C-968.25864506 105.03458022 -962.94105435 101.56463261 -957 98 C-952.41775656 93.96165367 -952.41775656 93.96165367 -949 89 C-948.01 89 -947.02 89 -946 89 C-946 87.68 -946 86.36 -946 85 C-633.82 85 -321.64 85 0 85 C0 56.95 0 28.9 0 0 Z " fill="#02153F" transform="translate(974,556)"/>
<path d="M0 0 C9.24 0 18.48 0 28 0 C28 109.56 28 219.12 28 332 C18.76 332 9.52 332 0 332 C0 222.44 0 112.88 0 0 Z " fill="#670C13" transform="translate(974,224)"/>
<path d="M0 0 C321.09 0 642.18 0 973 0 C973 0.33 973 0.66 973 1 C660.49 1 347.98 1 26 1 C26 73.6 26 146.2 26 221 C338.51 221 651.02 221 973 221 C973 221.33 973 221.66 973 222 C651.91 222 330.82 222 0 222 C0 148.74 0 75.48 0 0 Z " fill="#E88489" transform="translate(1,224)"/>
<path d="M0 0 C1.64534351 -0.00074354 3.29068686 -0.00192621 4.93602979 -0.0034965 C9.38318053 -0.00650998 13.83030772 -0.00343788 18.27745667 0.00078164 C23.14343239 0.00426264 28.0094061 0.00183627 32.8753823 0.00020415 C41.37857882 -0.00185587 49.8817683 -0.00024948 58.38496399 0.00384235 C71.02865079 0.00990961 83.6723332 0.01017518 96.31602118 0.00930037 C117.5908911 0.00799029 138.8657579 0.0113133 160.14062691 0.01731777 C181.19184319 0.02324383 202.24305817 0.02708554 223.29427528 0.02817059 C224.60535845 0.02823933 225.91644162 0.02830806 227.26725459 0.02837889 C232.58943944 0.02864932 237.9116243 0.02890423 243.23380916 0.02913284 C258.1071909 0.02977201 272.98057261 0.03073119 287.85395432 0.03190804 C288.53105085 0.03196135 289.20814738 0.03201467 289.90576198 0.0320696 C322.79536949 0.03468741 355.68497615 0.04099343 388.57458305 0.04760838 C399.979592 0.04990016 411.38460095 0.05217558 422.78960991 0.05438328 C423.85070484 0.0545887 423.85070484 0.0545887 424.93323602 0.05479828 C457.85477861 0.06114931 490.77632135 0.06487019 523.69786439 0.06791807 C525.83671073 0.06811614 527.97555708 0.06831533 530.11440342 0.06851475 C544.28935303 0.0698346 558.46430265 0.07110924 572.63925226 0.07235361 C600.84081387 0.07482973 629.04237545 0.0775714 657.24393701 0.08049566 C658.58678961 0.0806349 659.92964221 0.08077395 661.2724948 0.08091282 C750.51869942 0.0901443 839.76490306 0.1060311 929.01110649 0.12304783 C929.01110649 0.78304783 929.01110649 1.44304783 929.01110649 2.12304783 C616.50110649 2.12304783 303.99110649 2.12304783 -17.98889351 2.12304783 C-17.98889351 30.83304783 -17.98889351 59.54304783 -17.98889351 89.12304783 C-18.64889351 89.12304783 -19.30889351 89.12304783 -19.98889351 89.12304783 C-20.2402607 89.69925877 -20.49162788 90.2754697 -20.75061226 90.86914158 C-23.91617015 96.6310561 -29.35726714 100.92671935 -34.98889351 104.12304783 C-38.82479761 107.56749478 -38.82479761 107.56749478 -40.98889351 112.12304783 C-41.97889351 112.12304783 -42.96889351 112.12304783 -43.98889351 112.12304783 C-43.98889351 75.49304783 -43.98889351 38.86304783 -43.98889351 1.12304783 C-14.10379708 -0.02637896 -14.10379708 -0.02637896 0 0 Z " fill="#7285B7" transform="translate(44.98889350891113,555.8769521713257)"/>
<path d="M0 0 C330.33 0 660.66 0 1001 0 C1001 0.99 1001 1.98 1001 3 C997.05196573 4.91761664 995.20538862 4.86339853 991 4 C988.68480981 3.91035652 986.36725964 3.87550789 984.05033463 3.8758015 C983.35854443 3.87452342 982.66675424 3.87324533 981.9540007 3.87192852 C979.62611597 3.86885563 977.29829858 3.87293403 974.97041607 3.87695217 C973.28133093 3.87621271 971.59224594 3.87503432 969.90316138 3.87345567 C965.23665702 3.87037747 960.57017434 3.87356938 955.90367159 3.87773381 C950.83641738 3.88115993 945.76916543 3.87879875 940.70191079 3.87715632 C931.81275171 3.8750794 922.9235993 3.87673177 914.03444099 3.88079453 C900.81649795 3.88681899 887.59855913 3.88713131 874.38061496 3.88625254 C852.1480667 3.88493725 829.9155211 3.88827803 807.68297386 3.89426994 C785.66264011 3.9001905 763.64230758 3.90404465 741.62197304 3.90512276 C740.59653052 3.90517437 740.59653052 3.90517437 739.550372 3.90522704 C733.30656671 3.90554023 727.06276142 3.90582792 720.81895614 3.90608501 C705.29690057 3.90672444 689.77484503 3.90768379 674.2527895 3.90886021 C673.5459151 3.90891352 672.83904071 3.90896684 672.11074588 3.90902177 C637.7174662 3.91164389 603.32418732 3.9179517 568.9309082 3.92456055 C556.9942627 3.92685219 545.0576172 3.92912754 533.12097168 3.93133545 C532.38066925 3.9314724 531.64036683 3.93160935 530.877631 3.93175045 C496.4688856 3.93809343 462.06014007 3.94181976 427.65139425 3.94487024 C425.41781074 3.94506831 423.18422724 3.9452675 420.95064374 3.94546692 C406.14868612 3.94678669 391.34672849 3.94806135 376.54477086 3.94930578 C347.09203854 3.95178235 317.63930624 3.95452403 288.18657396 3.95744783 C286.78392823 3.95758707 285.3812825 3.95772612 283.97863678 3.95786499 C211.51267893 3.96504123 139.0467219 3.97644528 66.58076477 3.9888916 C65.57098912 3.98906501 64.56121346 3.98923841 63.52083854 3.98941707 C43.68055901 3.99283177 23.84027951 3.99643377 4 4 C4 39.31 4 74.62 4 111 C11.26 111 18.52 111 26 111 C26 111.33 26 111.66 26 112 C17.42 112 8.84 112 0 112 C0 75.04 0 38.08 0 0 Z " fill="#8293C0" transform="translate(1,1)"/>
<path d="M0 0 C9.24 0 18.48 0 28 0 C28 36.3 28 72.6 28 110 C18.76 110 9.52 110 0 110 C0 73.7 0 37.4 0 0 Z " fill="#7F7F7F" transform="translate(974,446)"/>
<path d="M0 0 C9.24 0 18.48 0 28 0 C28 36.3 28 72.6 28 110 C18.76 110 9.52 110 0 110 C0 73.7 0 37.4 0 0 Z " fill="#7F7F7F" transform="translate(974,114)"/>
<path d="M0 0 C0 36.3 0 72.6 0 110 C-9.24 110 -18.48 110 -28 110 C-28.18093325 99.16870941 -28.32761669 88.33842664 -28.41449738 77.50596523 C-28.45620182 72.47565386 -28.51274149 67.44643223 -28.60351562 62.41674805 C-28.69061382 57.56020002 -28.73830982 52.70469819 -28.75901794 47.84742928 C-28.77376941 45.99697463 -28.8025777 44.14657557 -28.84584045 42.29656792 C-29.17171653 27.78051159 -29.17171653 27.78051159 -26.24926758 23.33963013 C-24.24178957 21.56353647 -22.346668 20.27587523 -20 19 C-17.14896916 16.52410479 -16.14296391 15.42889172 -14.9375 11.8125 C-14.628125 10.884375 -14.31875 9.95625 -14 9 C-13.01 8.67 -12.02 8.34 -11 8 C-11 7.34 -11 6.68 -11 6 C-10.34 6 -9.68 6 -9 6 C-9 5.34 -9 4.68 -9 4 C-8.34 4 -7.68 4 -7 4 C-7 3.34 -7 2.68 -7 2 C-2.25 0 -2.25 0 0 0 Z " fill="#031640" transform="translate(1002,4)"/>
<path d="M0 0 C327.69 0 655.38 0 993 0 C993 0.66 993 1.32 993 2 C665.97 2 338.94 2 2 2 C2 37.31 2 72.62 2 109 C9.26 109 16.52 109 24 109 C24 109.33 24 109.66 24 110 C15.42 110 6.84 110 -2 110 C-1.01 109.505 -1.01 109.505 0 109 C0 73.03 0 37.06 0 0 Z " fill="#899AC9" transform="translate(3,3)"/>
<path d="M0 0 C8.58 0 17.16 0 26 0 C25.67 0.66 25.34 1.32 25 2 C18.07 2 11.14 2 4 2 C4 36.32 4 70.64 4 106 C3.34 106 2.68 106 2 106 C2 71.35 2 36.7 2 1 C1.34 0.67 0.68 0.34 0 0 Z " fill="#8B9BC9" transform="translate(1,557)"/>
<path d="M0 0 C0.83203125 1.640625 0.83203125 1.640625 1 4 C-0.71443011 6.14228963 -2.32987816 7.89174927 -4.3125 9.75 C-4.82490234 10.25660156 -5.33730469 10.76320313 -5.86523438 11.28515625 C-9.70524132 15 -9.70524132 15 -12 15 C-12 41.4 -12 67.8 -12 95 C-12.33 95 -12.66 95 -13 95 C-13.1391277 84.54270806 -13.24568574 74.08563691 -13.31087303 63.62760735 C-13.34216282 58.77126205 -13.3845923 53.91555074 -13.45263672 49.05957031 C-13.51791375 44.37165234 -13.55372374 39.68434345 -13.56926346 34.99600601 C-13.5803349 33.20898984 -13.6019557 31.42200637 -13.63438034 29.63525009 C-13.67805721 27.12833862 -13.6839298 24.62393103 -13.68115234 22.11669922 C-13.702724 21.38086105 -13.72429565 20.64502289 -13.746521 19.8868866 C-13.71117647 16.93095793 -13.4996554 14.64189595 -11.65361404 12.27032852 C-10.01992798 10.6802063 -10.01992798 10.6802063 -8.38620949 9.32011604 C-6.71922319 7.93919847 -6.71922319 7.93919847 -6 5 C-4.12382302 3.15500602 -2.07262391 1.6316401 0 0 Z " fill="#012570" transform="translate(986,15)"/>
<path d="M0 0 C0 3 0 3 -1.86328125 5.26171875 C-2.67152344 6.06222656 -3.47976562 6.86273437 -4.3125 7.6875 C-5.11300781 8.49574219 -5.91351563 9.30398438 -6.73828125 10.13671875 C-9 12 -9 12 -12 12 C-12 12.99 -12 13.98 -12 15 C-13.65 15.33 -15.3 15.66 -17 16 C-13.38556062 11.3724223 -9.64171567 7.73658931 -4.83203125 4.359375 C-3.04297774 3.03188967 -1.53216927 1.61280975 0 0 Z " fill="#071943" transform="translate(21,650)"/>
<path d="M0 0 C0.83984375 1.640625 0.83984375 1.640625 1 4 C-0.75836408 6.1302685 -2.42424794 7.8949842 -4.4375 9.75 C-4.96666016 10.25660156 -5.49582031 10.76320313 -6.04101562 11.28515625 C-7.34977101 12.53495869 -8.67351959 13.76902618 -10 15 C-10.33 14.01 -10.66 13.02 -11 12 C-10.360625 11.401875 -9.72125 10.80375 -9.0625 10.1875 C-6.79689611 8.09189663 -6.79689611 8.09189663 -6 5 C-4.12382302 3.15500602 -2.07262391 1.6316401 0 0 Z " fill="#031B51" transform="translate(986,15)"/>
<path d="M0 0 C0.66 0.33 1.32 0.66 2 1 C1.360625 1.598125 0.72125 2.19625 0.0625 2.8125 C-2.20310389 4.90810337 -2.20310389 4.90810337 -3 8 C-4.65 8.33 -6.3 8.66 -8 9 C-7.04270084 7.87411986 -6.08412105 6.7493285 -5.125 5.625 C-4.59132813 4.99851562 -4.05765625 4.37203125 -3.5078125 3.7265625 C-2.38567993 2.44163349 -1.20628025 1.20628025 0 0 Z " fill="#33456F" transform="translate(12,657)"/>
<path d="M0 0 C0.33 1.32 0.66 2.64 1 4 C-2.465 5.485 -2.465 5.485 -6 7 C-6 6.34 -6 5.68 -6 5 C-4.04072937 3.2856382 -2.04119788 1.61594832 0 0 Z " fill="#253E76" transform="translate(986,15)"/>
<path d="M0 0 C1.32 0 2.64 0 4 0 C3.67 1.65 3.34 3.3 3 5 C2.01 5 1.02 5 0 5 C0 3.35 0 1.7 0 0 Z " fill="#6D7FAE" transform="translate(1,663)"/>
<path d="" fill="#FFFFFF" transform="translate(0,0)"/>
</svg>
