<?xml version="1.0" encoding="UTF-8" standalone="no"?>
<svg
   xmlns:dc="http://purl.org/dc/elements/1.1/"
   xmlns:cc="http://creativecommons.org/ns#"
   xmlns:rdf="http://www.w3.org/1999/02/22-rdf-syntax-ns#"
   xmlns:svg="http://www.w3.org/2000/svg"
   xmlns="http://www.w3.org/2000/svg"
   xmlns:xlink="http://www.w3.org/1999/xlink"
   xmlns:sodipodi="http://sodipodi.sourceforge.net/DTD/sodipodi-0.dtd"
   xmlns:inkscape="http://www.inkscape.org/namespaces/inkscape"
   width="630"
   height="360"
   version="1.1"
   id="svg42"
   sodipodi:docname="Flag_of_Iran (WFB).svg"
   inkscape:version="0.92.3 (2405546, 2018-03-11)">
  <metadata
     id="metadata48">
    <rdf:RDF>
      <cc:Work
         rdf:about="">
        <dc:format>image/svg+xml</dc:format>
        <dc:type
           rdf:resource="http://purl.org/dc/dcmitype/StillImage" />
      </cc:Work>
    </rdf:RDF>
  </metadata>
  <defs
     id="defs46" />
  <sodipodi:namedview
     pagecolor="#ffffff"
     bordercolor="#666666"
     borderopacity="1"
     objecttolerance="10"
     gridtolerance="10"
     guidetolerance="10"
     inkscape:pageopacity="0"
     inkscape:pageshadow="2"
     inkscape:window-width="1920"
     inkscape:window-height="1017"
     id="namedview44"
     showgrid="false"
     inkscape:zoom="0.63751849"
     inkscape:cx="315"
     inkscape:cy="180"
     inkscape:window-x="-8"
     inkscape:window-y="-8"
     inkscape:window-maximized="1"
     inkscape:current-layer="svg42" />
  <rect
     width="630"
     height="360"
     fill="#da0000"
     id="rect2"
     style="fill:#ed1b24;fill-opacity:1" />
  <rect
     width="630"
     height="240"
     fill="#fff"
     id="rect4" />
  <rect
     width="630"
     height="120"
     fill="#239f40"
     id="rect6"
     style="fill:#00a650;fill-opacity:1" />
  <g
     transform="translate(8.4,100.4)"
     id="g27">
    <g
       id="tb4">
      <g
         id="tb1"
         fill="none"
         stroke="#fff"
         stroke-width="2">
        <path
           id="tbp1"
           d="M0,1H26M1,10V5H9V9H17V5H12M4,9H6M26,9H21V5H29M29,0V9H37V0M33,0V9"
           transform="scale(1.4)" />
        <path
           id="tbp2"
           d="M0,7H9M10,7H19"
           transform="scale(2.8)" />
        <use
           xlink:href="#tbp2"
           y="120"
           id="use10" />
        <use
           xlink:href="#tbp1"
           y="145.2"
           id="use12" />
      </g>
      <g
         id="tb3">
        <use
           xlink:href="#tb1"
           x="56"
           id="use15" />
        <use
           xlink:href="#tb1"
           x="112"
           id="use17" />
        <use
           xlink:href="#tb1"
           x="168"
           id="use19" />
      </g>
    </g>
    <use
       xlink:href="#tb3"
       x="168"
       id="use23" />
    <use
       xlink:href="#tb4"
       x="392"
       id="use25" />
  </g>
  <g
     transform="matrix(45,0,0,45,315,180)"
     id="g40"
     style="fill:#ed1b24;fill-opacity:1">
    <g
       id="emblem_half"
       style="fill:#ed1b24;fill-opacity:1">
      <path
         d="M -0.54815,0.83638 A 0.912046,0.912046 0 0 0 0.328544,-0.722384 1,1 0 0 1 -0.54815,0.83638"
         id="path29"
         inkscape:connector-curvature="0"
         style="fill:#ed1b24;fill-opacity:1" />
      <path
         d="M 0.618339,0.661409 A 0.763932,0.763932 0 0 0 0.421644,-0.741049 1,1 0 0 1 0.618339,0.661409"
         id="path31"
         inkscape:connector-curvature="0"
         style="fill:#ed1b24;fill-opacity:1" />
      <path
         d="M 0,1 -0.05,0 0,-0.787278 a 0.309995,0.309995 0 0 0 0.118034,0.099087 v 0.587785 L 0.077809,0.892905 Z"
         id="path33"
         inkscape:connector-curvature="0"
         style="fill:#ed1b24;fill-opacity:1" />
      <path
         d="M -0.02,-0.85 0,-0.831217 A 0.14431,0.14431 0 0 0 0.252075,-0.967708 0.136408,0.136408 0 0 1 0,-0.924634"
         id="path35"
         inkscape:connector-curvature="0"
         style="fill:#ed1b24;fill-opacity:1" />
    </g>
    <use
       xlink:href="#emblem_half"
       transform="scale(-1,1)"
       id="use38"
       x="0"
       y="0"
       width="100%"
       height="100%"
       style="fill:#ed1b24;fill-opacity:1" />
  </g>
</svg>
