<svg width="17" height="17" viewBox="0 0 17 17" fill="none" xmlns="http://www.w3.org/2000/svg">
<path d="M1.3335 16L1.3335 1.83333M1.3335 9.33333H7.50016C7.96687 9.33333 8.20023 9.33333 8.37849 9.24251C8.53529 9.16261 8.66277 9.03513 8.74267 8.87833C8.8335 8.70007 8.8335 8.46671 8.8335 8V2.33333C8.8335 1.86662 8.8335 1.63327 8.74267 1.45501C8.66277 1.29821 8.53529 1.17072 8.37849 1.09083C8.20023 1 7.96687 1 7.50016 1H2.66683C2.20012 1 1.96676 1 1.7885 1.09083C1.6317 1.17072 1.50422 1.29821 1.42432 1.45501C1.3335 1.63327 1.3335 1.86662 1.3335 2.33333V9.33333ZM8.8335 2.66667H14.1668C14.6335 2.66667 14.8669 2.66667 15.0452 2.75749C15.202 2.83739 15.3294 2.96487 15.4093 3.12167C15.5002 3.29993 15.5002 3.53329 15.5002 4V9.66667C15.5002 10.1334 15.5002 10.3667 15.4093 10.545C15.3294 10.7018 15.202 10.8293 15.0452 10.9092C14.8669 11 14.6335 11 14.1668 11H10.1668C9.70012 11 9.46676 11 9.2885 10.9092C9.1317 10.8293 9.00422 10.7018 8.92432 10.545C8.8335 10.3667 8.8335 10.1334 8.8335 9.66667V2.66667Z" stroke="#111827" stroke-width="2" stroke-linecap="round" stroke-linejoin="round"/>
</svg>
