<svg width="19" height="17" viewBox="0 0 19 17" fill="none" xmlns="http://www.w3.org/2000/svg">
<path d="M14.7145 11.6974C15.9277 12.3069 16.9679 13.285 17.7272 14.508C17.8775 14.7502 17.9527 14.8713 17.9787 15.039C18.0315 15.3798 17.7985 15.7988 17.4811 15.9336C17.3249 16 17.1492 16 16.7978 16M13.0478 8.1102C14.2826 7.49657 15.1311 6.22238 15.1311 4.75C15.1311 3.27762 14.2826 2.00343 13.0478 1.3898M11.3811 4.75C11.3811 6.82107 9.7022 8.5 7.63113 8.5C5.56006 8.5 3.88113 6.82107 3.88113 4.75C3.88113 2.67893 5.56006 1 7.63113 1C9.7022 1 11.3811 2.67893 11.3811 4.75ZM1.84716 14.282C3.17575 12.2871 5.27227 11 7.63113 11C9.98999 11 12.0865 12.2871 13.4151 14.282C13.7062 14.719 13.8517 14.9375 13.8349 15.2166C13.8219 15.4339 13.6794 15.7 13.5058 15.8313C13.2827 16 12.976 16 12.3625 16H2.89976C2.28627 16 1.97953 16 1.7565 15.8313C1.58284 15.7 1.44037 15.4339 1.42733 15.2166C1.41057 14.9375 1.5561 14.719 1.84716 14.282Z" stroke="#111827" stroke-width="2" stroke-linecap="round" stroke-linejoin="round"/>
</svg>
