<svg width="28" height="28" viewBox="0 0 28 28" fill="none" xmlns="http://www.w3.org/2000/svg">
<path d="M5.17997 5.18C5.50809 4.85228 5.95288 4.66821 6.41664 4.66821C6.88039 4.66821 7.32518 4.85228 7.6533 5.18L14 11.5243L20.3466 5.18C20.509 5.0176 20.7018 4.88877 20.914 4.80088C21.1262 4.71299 21.3536 4.66776 21.5833 4.66776C21.813 4.66776 22.0404 4.71299 22.2526 4.80088C22.4648 4.88877 22.6576 5.0176 22.82 5.18C22.9824 5.3424 23.1112 5.5352 23.1991 5.74739C23.287 5.95957 23.3322 6.187 23.3322 6.41667C23.3322 6.64634 23.287 6.87376 23.1991 7.08595C23.1112 7.29813 22.9824 7.49093 22.82 7.65333L16.4756 14L22.82 20.3467C23.148 20.6747 23.3322 21.1195 23.3322 21.5833C23.3322 22.0472 23.148 22.492 22.82 22.82C22.492 23.148 22.0471 23.3322 21.5833 23.3322C21.1195 23.3322 20.6746 23.148 20.3466 22.82L14 16.4757L7.6533 22.82C7.32532 23.148 6.88048 23.3322 6.41664 23.3322C5.9528 23.3322 5.50795 23.148 5.17997 22.82C4.85198 22.492 4.66772 22.0472 4.66772 21.5833C4.66772 21.1195 4.85198 20.6747 5.17997 20.3467L11.5243 14L5.17997 7.65333C4.85225 7.32521 4.66818 6.88042 4.66818 6.41667C4.66818 5.95291 4.85225 5.50813 5.17997 5.18Z" fill="white"/>
</svg>
