<svg width="18" height="17" viewBox="0 0 18 17" fill="none" xmlns="http://www.w3.org/2000/svg">
<path d="M8.85726 15.167C10.6254 15.167 12.3211 14.4646 13.5713 13.2144C14.8215 11.9641 15.5239 10.2684 15.5239 8.50033C15.5239 6.73222 14.8215 5.03652 13.5713 3.78628C12.3211 2.53604 10.6254 1.83366 8.85726 1.83366C7.08915 1.83366 5.39346 2.53604 4.14321 3.78628C2.89297 5.03652 2.19059 6.73222 2.19059 8.50033C2.19059 10.2684 2.89297 11.9641 4.14321 13.2144C5.39346 14.4646 7.08915 15.167 8.85726 15.167ZM8.85726 0.166992C9.95161 0.166992 11.0352 0.38254 12.0463 0.801329C13.0573 1.22012 13.976 1.83395 14.7498 2.60777C15.5236 3.38159 16.1375 4.30025 16.5563 5.3113C16.975 6.32234 17.1906 7.40598 17.1906 8.50033C17.1906 10.7105 16.3126 12.8301 14.7498 14.3929C13.187 15.9557 11.0674 16.8337 8.85726 16.8337C4.24893 16.8337 0.523926 13.0837 0.523926 8.50033C0.523926 6.29019 1.4019 4.17057 2.9647 2.60777C4.52751 1.04497 6.64712 0.166992 8.85726 0.166992ZM9.27393 4.33366V8.70866L13.0239 10.9337L12.3989 11.9587L8.02393 9.33366V4.33366H9.27393Z" fill="#111827"/>
</svg>
