<svg width="19" height="17" viewBox="0 0 19 17" fill="none" xmlns="http://www.w3.org/2000/svg">
<path d="M12.3455 8.08333H11.5121L10.2621 10.5833L8.59546 5.58333L7.34546 8.08333H6.51213M9.42309 2.77985C7.75696 0.832 4.97858 0.308035 2.89104 2.09168C0.803496 3.87532 0.509599 6.85748 2.14896 8.967C3.3872 10.5604 6.90487 13.7591 8.55213 15.2291C8.85495 15.4993 9.00635 15.6344 9.18365 15.6876C9.33757 15.7338 9.50861 15.7338 9.66252 15.6876C9.83982 15.6344 9.99122 15.4993 10.294 15.2291C11.9413 13.7591 15.459 10.5604 16.6972 8.967C18.3366 6.85748 18.0786 3.85656 15.9551 2.09168C13.8317 0.326798 11.0892 0.832 9.42309 2.77985Z" stroke="#111827" stroke-width="2" stroke-linecap="round" stroke-linejoin="round"/>
</svg>
