<?xml version="1.0" encoding="UTF-8"?>
<svg version="1.0" xmlns="http://www.w3.org/2000/svg" width="600" height="300">
	<rect width="600" height="300" fill="red"/>
	<rect x="150" width="300" height="300" fill="white"/>
	<path d="M 295.68957,270.41682 L 304.31043,270.41682 L 302.56666,211.60474 L 298.30525,211.99242 z" fill="red" stroke="red"/>
	<path d="M 300.54424,29.583177 L 278.78049,81.543857 L 269.25883,71.070353 L 268.57872,134.32129 L 236.61319,101.67564 L 235.93307,114.59788 L 200.14729,107.16213 L 211.76612,143.79739 L 198.11823,144.11468 L 244.41177,190.7255 L 229.81201,205.05352 L 244.7746,222.73658 L 242.05413,238.33374 L 285.58166,227.4974 L 300.18142,220.60513 L 319.31886,228.56312 L 359.71448,239.0594 L 356.67672,222.46484 L 371.95659,205.05352 L 356.99401,191.36007 L 401.88178,144.74925 L 390.31977,144.06913 L 401.11057,106.43647 L 365.9251,113.96331 L 365.15542,100.99553 L 332.50977,133.64117 L 332.05586,71.387639 L 322.30802,81.272117 z" fill="red" stroke="red"/>
</svg>