<?xml version="1.0" encoding="UTF-8"?>
<svg version="1.1" xmlns="http://www.w3.org/2000/svg" width="275" height="183">
<path d="M0 0 C90.75 0 181.5 0 275 0 C275 60.39 275 120.78 275 183 C184.25 183 93.5 183 0 183 C0 122.61 0 62.22 0 0 Z " fill="#7F6E6E" transform="translate(0,0)"/>
<path d="M0 0 C90.75 0 181.5 0 275 0 C275 27.06 275 54.12 275 82 C184.25 82 93.5 82 0 82 C0 54.94 0 27.88 0 0 Z " fill="#7F6464" transform="translate(0,101)"/>
<path d="M0 0 C90.75 0 181.5 0 275 0 C275 13.53 275 27.06 275 41 C184.25 41 93.5 41 0 41 C0 27.47 0 13.94 0 0 Z " fill="#7F6E6E" transform="translate(0,142)"/>
<path d="M0 0 C90.75 0 181.5 0 275 0 C275 11.88 275 23.76 275 36 C184.25 36 93.5 36 0 36 C0 24.12 0 12.24 0 0 Z " fill="#7F0000" transform="translate(0,0)"/>
<path d="M0 0 C90.75 0 181.5 0 275 0 C275 7.26 275 14.52 275 22 C184.25 22 93.5 22 0 22 C0 14.74 0 7.48 0 0 Z " fill="#7F6565" transform="translate(0,79)"/>
<path d="M0 0 C90.75 0 181.5 0 275 0 C275 5.61 275 11.22 275 17 C184.25 17 93.5 17 0 17 C0 11.39 0 5.78 0 0 Z " fill="#7F4C4C" transform="translate(0,101)"/>
<path d="M0 0 C90.75 0 181.5 0 275 0 C275 3.3 275 6.6 275 10 C230.00416241 10.87315829 185.02415298 11.16073322 140.02048552 11.12856841 C134.10829643 11.12478601 128.19612404 11.12617257 122.28393555 11.13037109 C81.50999539 11.15865122 40.76481208 10.95844408 0 10 C0 6.7 0 3.4 0 0 Z " fill="#7F6464" transform="translate(0,118)"/>
<path d="M0 0 C90.75 0 181.5 0 275 0 C275 2.31 275 4.62 275 7 C229.62813092 7.8690373 184.27145339 8.16102506 138.89191711 8.12856841 C132.97912713 8.1247832 127.06635384 8.12617512 121.15356445 8.13037109 C80.75629927 8.15837055 40.38779436 7.97244347 0 7 C0 4.69 0 2.38 0 0 Z " fill="#7F6464" transform="translate(0,79)"/>
<path d="M0 0 C90.75 0 181.5 0 275 0 C275 2.31 275 4.62 275 7 C184.25 7 93.5 7 0 7 C0 4.69 0 2.38 0 0 Z " fill="#7F6969" transform="translate(0,142)"/>
<path d="M0 0 C90.75 0 181.5 0 275 0 C275 1.65 275 3.3 275 5 C184.25 5 93.5 5 0 5 C0 3.35 0 1.7 0 0 Z " fill="#916969" transform="translate(0,96)"/>
<path d="M0 0 C90.75 0 181.5 0 275 0 C275 1.32 275 2.64 275 4 C184.25 4 93.5 4 0 4 C0 2.68 0 1.36 0 0 Z " fill="#7F6363" transform="translate(0,75)"/>
<path d="M0 0 C90.75 0 181.5 0 275 0 C275 0.99 275 1.98 275 3 C229.62813092 3.8690373 184.27145339 4.16102506 138.89191711 4.12856841 C132.97912713 4.1247832 127.06635384 4.12617512 121.15356445 4.13037109 C80.75629927 4.15837055 40.38779436 3.97244347 0 3 C0 2.01 0 1.02 0 0 Z " fill="#594040" transform="translate(0,139)"/>
<path d="M0 0 C90.75 0 181.5 0 275 0 C275 0.99 275 1.98 275 3 C229.62813092 3.8690373 184.27145339 4.16102506 138.89191711 4.12856841 C132.97912713 4.1247832 127.06635384 4.12617512 121.15356445 4.13037109 C80.75629927 4.15837055 40.38779436 3.97244347 0 3 C0 2.01 0 1.02 0 0 Z " fill="#594141" transform="translate(0,83)"/>
<path d="M0 0 C90.75 0 181.5 0 275 0 C275 0.99 275 1.98 275 3 C230.00436276 3.87866065 185.02399737 4.16073311 140.02048552 4.12856841 C134.10829643 4.12478601 128.19612404 4.12617257 122.28393555 4.13037109 C81.50999539 4.15865122 40.76481208 3.95844408 0 3 C0 2.01 0 1.02 0 0 Z " fill="#584242" transform="translate(0,125)"/>
<path d="M0 0 C90.75 0 181.5 0 275 0 C275 0.99 275 1.98 275 3 C184.25 3 93.5 3 0 3 C0 2.01 0 1.02 0 0 Z " fill="#AA6C6C" transform="translate(0,118)"/>
<path d="M0 0 C90.75 0 181.5 0 275 0 C275 0.99 275 1.98 275 3 C184.25 3 93.5 3 0 3 C0 2.01 0 1.02 0 0 Z " fill="#553232" transform="translate(0,115)"/>
<path d="M0 0 C90.75 0 181.5 0 275 0 C275 0.99 275 1.98 275 3 C184.25 3 93.5 3 0 3 C0 2.01 0 1.02 0 0 Z " fill="#554343" transform="translate(0,93)"/>
<path d="M0 0 C90.75 0 181.5 0 275 0 C275 0.99 275 1.98 275 3 C184.25 3 93.5 3 0 3 C0 2.01 0 1.02 0 0 Z " fill="#AA8B8B" transform="translate(0,72)"/>
<path d="M0 0 C90.75 0 181.5 0 275 0 C275 0.99 275 1.98 275 3 C184.25 3 93.5 3 0 3 C0 2.01 0 1.02 0 0 Z " fill="#554949" transform="translate(0,69)"/>
<path d="M0 0 C90.75 0 181.5 0 275 0 C275 0.99 275 1.98 275 3 C184.25 3 93.5 3 0 3 C0 2.01 0 1.02 0 0 Z " fill="#AA6060" transform="translate(0,36)"/>
<path d="M0 0 C90.75 0 181.5 0 275 0 C275 0.99 275 1.98 275 3 C184.25 3 93.5 3 0 3 C0 2.01 0 1.02 0 0 Z " fill="#A88A8A" transform="translate(0,128)"/>
<path d="M0 0 C90.75 0 181.5 0 275 0 C275 0.99 275 1.98 275 3 C184.25 3 93.5 3 0 3 C0 2.01 0 1.02 0 0 Z " fill="#A78888" transform="translate(0,142)"/>
<path d="M0 0 C90.75 0 181.5 0 275 0 C275 0.99 275 1.98 275 3 C184.25 3 93.5 3 0 3 C0 2.01 0 1.02 0 0 Z " fill="#A78A8A" transform="translate(0,86)"/>
<path d="M0 0 C25.41 0 50.82 0 77 0 C77 0.66 77 1.32 77 2 C90.86 2 104.72 2 119 2 C119 2.33 119 2.66 119 3 C79.73 3 40.46 3 0 3 C0 2.01 0 1.02 0 0 Z " fill="#B78F8F" transform="translate(0,98)"/>
</svg>
