<?xml version="1.0" encoding="utf-8"?>
<!-- Generator: Adobe Illustrator 22.0.0, SVG Export Plug-In . SVG Version: 6.00 Build 0)  -->
<svg version="1.1"
	 id="svg8" inkscape:version="0.92.3 (2405546, 2018-03-11)" sodipodi:docname="Flag of Saudi Arabia (WFB 2004).svg" xmlns:cc="http://creativecommons.org/ns#" xmlns:dc="http://purl.org/dc/elements/1.1/" xmlns:inkscape="http://www.inkscape.org/namespaces/inkscape" xmlns:rdf="http://www.w3.org/1999/02/22-rdf-syntax-ns#" xmlns:sodipodi="http://sodipodi.sourceforge.net/DTD/sodipodi-0.dtd" xmlns:svg="http://www.w3.org/2000/svg"
	 xmlns="http://www.w3.org/2000/svg" xmlns:xlink="http://www.w3.org/1999/xlink" x="0px" y="0px" width="900px" height="600px"
	 viewBox="0 0 900 600" style="enable-background:new 0 0 900 600;" xml:space="preserve">
<style type="text/css">
	.st0{fill:#239E46;}
	.st1{fill:#FFFFFF;}
</style>
<sodipodi:namedview  bordercolor="#666666" borderopacity="1" gridtolerance="10" guidetolerance="10" id="namedview10" inkscape:current-layer="svg8" inkscape:cx="450" inkscape:cy="300" inkscape:pageopacity="0" inkscape:pageshadow="2" inkscape:window-height="1017" inkscape:window-maximized="1" inkscape:window-width="1920" inkscape:window-x="-8" inkscape:window-y="-8" inkscape:zoom="0.31555556" objecttolerance="10" pagecolor="#ffffff" showgrid="false">
	</sodipodi:namedview>
<path id="path2" class="st0" d="M0,0h900v600H0V0z"/>
<g>
	<path class="st1" d="M618.2,434.1c0-6.5-6.9-11.7-15.3-11.7h-42.1c0,0,2.5-6.2,2.5-8.7c0-2.7-2.9-4.9-6.4-4.9s-6.4,2.2-6.4,4.9
		c0,2.3,2,4.2,4.8,4.7c0.5,0.1,1.1,0.2,1.7,0.2h0.1c-0.2,1.3-0.5,2.7-1.2,3.8H282.1c0,0,12.9,9.5,25.7,9.8h243.5
		c0,0-2.5,6.2-2.5,8.7c0,2.7,2.9,4.9,6.4,4.9c2.8,0,5.2-1.4,6.1-3.4h15c0.7,2,2.5,3.4,4.7,3.4s4-1.4,4.7-3.4h13.7
		c0.7,2,2.5,3.4,4.7,3.4c0.1,0,0.2,0,0.2,0l0,0c0.1,0,0.3,0,0.4,0c0.2,0,0.3,0,0.5-0.1C612.6,444.7,618.2,439.8,618.2,434.1z
		 M599.5,439.3h-13.6c-0.6-2.1-2.5-3.6-4.8-3.6s-4.2,1.5-4.8,3.6h-15c-0.7-1.6-2.3-2.8-4.4-3.2c-0.5-0.1-1.1-0.2-1.7-0.2h-0.1
		c0.2-1.3,0.5-2.7,1.2-3.8h46.6c2.7,0.1,3.3,2.7,1.4,3.6C602,435.7,600.1,437.2,599.5,439.3z"/>
	<path class="st1" d="M596.5,295.4c10.4-4,20.8-8,31.2-12c-0.6,1.5-1.3,3.2-3.1,3.9c-9.6,3.7-19.2,7.4-28.8,11
		c-0.6,0.2-1.3,0.5-2,0.7c0.6-1,1.2-2,1.8-3C595.9,295.6,596.2,295.5,596.5,295.4L596.5,295.4z M564.1,281.5
		c2.2,1.4,4.3,2.9,5.7,4.6c2.6,3.2,3.3,7.4,1.7,11c-0.1,0.3-0.4,0.5-0.7,0.8c0.5-2,0.7-4.1-0.1-6.1c-1.1-2.9-3.6-5.3-6.9-6.7
		C563.8,283.8,564,282.5,564.1,281.5L564.1,281.5z M478.1,279.7c1.4-0.9,3.3-1,5.1-1c1.8,0.1,3.6,0.2,5.2,0.9c0.7,0.7,0,1.5-0.7,1.9
		c-3,1.7-6.4,3.2-8.9,5.5c-0.7,0.6-0.3,1.5,0.5,1.8c1.3,0.5,2.8,0.5,4.2,0.5c3.3-0.1,6.6-1.1,9.3-2.6c0.8-0.4,1.5-0.9,2.3-1.2
		c-1.7,1.7-3.7,3.2-5.8,4.5c-1.8,1.1-3.8,2-6.1,2.3c-1.8,0.1-3.7,0.1-5.2-0.7c-1.7-0.8-2.5-2.6-1.9-4.1c0.4-0.8,1.1-1.5,1.8-2.2
		c1.9-1.6,4.3-2.8,6.6-4c-1.6-0.1-3.2-0.1-4.8,0c-1,0.1-1.7,0.7-2.4,1.2C477.1,281.6,477.1,280.4,478.1,279.7L478.1,279.7z
		 M415.4,277.3c1.4-0.5,3.3-0.5,4.4,0.5c0.9,0.9,1,2,0.9,3.1c-0.7,0.8-1.6,1.5-2.2,2.3c-1.3,0.2-2.6,0-3.9,0.3
		c-0.6,0.3-1.5,0.5-1.8,1.1c-0.4,0.8-0.2,1.6,0,2.4c0.7,2.7,1.9,5.4,1.8,8.2c-0.1,1-0.2,2-0.7,2.9c-0.1-1.6-0.8-3.1-1.3-4.6
		c-1-2.7-1.7-5.6-1.8-8.4c-0.1-1.1,0.7-2,1.5-2.9c1.2-1.3,3.3-1.7,5.2-2c-0.5-0.4-1-0.8-1.8-0.7c-1,0.1-1.7,0.8-2.3,1.4
		C413.3,279.6,413.8,278,415.4,277.3L415.4,277.3z M506.4,276.8c0.1-0.1,0.2-0.1,0.4-0.1c-0.5,0.5-0.8,1.1-1.2,1.7
		c-1.2,1.8-2.5,3.6-2.2,5.7c0,1,0.7,2.2,2.2,2.2c0.7-0.3,0.9-1,1.2-1.5c0,1.5-0.3,3.4-2.1,4.2c-1.5-0.2-2.6-1.2-2.7-2.4
		C501.5,283,503.4,279.5,506.4,276.8z M237.2,256.5c0.9-1.2,1.7-2.5,3.2-3.3c-1.8,2.9-3.7,5.9-4.5,9.1c-0.3,1.2-0.4,2.7,0.6,3.7
		c0.8,0.7,2,0.8,3.1,0.6c1.6-0.3,2.4-1.6,3-2.7c0.5,0.8,0,1.7-0.2,2.4c-0.7,1.7-1.5,3.5-3.3,4.6c-1.4,0.9-3.5,0.5-4.8-0.2
		c-1.8-1.1-1.8-3.1-1.5-4.8C233.4,262.5,235.2,259.5,237.2,256.5L237.2,256.5z M369.5,243.5c0.5-0.8,1.6-1.7,2.8-1.3
		c1.5,0.4,3.4,1.3,3.1,2.8c-0.4,0.5-0.9,0.9-1.4,1.4c-0.5-0.7-1-1.7-2.2-1.8c-1.5,0.4-2.4,1.6-2.9,2.7c-1,2.5-1.2,5.1-1.5,7.7
		c-0.4,0.2-0.7,0.3-1.1,0.4c0-2.4-0.6-4.9-2.7-6.8c-0.5-0.6-1.5-0.3-2.2-0.6c-1.3-0.4-1.8-1.5-2.1-2.4c-0.2-0.6-0.4-1.4,0.1-2
		c1.1-0.3,2,0.5,2.8,1c2.1,1.6,3.5,3.6,4.7,5.7C367.6,248,368.1,245.6,369.5,243.5L369.5,243.5z M587.2,237.2
		c1.6-0.4,3.2,0.1,4.5,0.9c2.2,1.3,3.8,3,5.2,4.8c0.7,1.1,1.5,2.2,1.2,3.5c-0.2,0.8-0.2,1.7-0.9,2.5c-0.7,0.7-2,0.6-2.9,0.2
		c-1-0.5-2-1-3-1.4c-1.4,3.1-4.4,5.5-7.7,7.4c-2.2,1.3-4.6,2.4-7.1,3.5c-1.5,0.6-3.2,1-4.8,1.4s-3.3,0.8-5,0.7
		c1.1-0.1,1.9-0.6,2.8-1c4.7-2.2,9.4-4.5,13.6-7.3c2.2-1.5,4.5-3.1,6-5.2c-1-0.2-2-0.3-2.9-0.4c-0.8-1.8-0.8-4.1,0.9-5.6
		c-0.9-0.5-0.9-1.5-1.1-2.2C586,238.3,586.3,237.4,587.2,237.2 M591.4,241.7c0.3,1.4,0.4,2.7,0.4,4.1c1.3,0.2,2.7,0.6,4,0.4
		c0.7-0.1,0.7-0.8,0.3-1.1C594.9,243.7,593.1,242.7,591.4,241.7 M586.9,243.9c0.7,1,2.2,1.3,3.5,1.6c0.3-0.6,0.6-1.3,0.5-2
		c-0.5-0.7-1.1-1.6-2.2-1.6C587.6,242.3,587.3,243.1,586.9,243.9L586.9,243.9z M499.3,235.3c0.8-0.8,2.1-1.2,3.4-1.2
		c0.9,0,1.3,0.7,1.5,1.3c0.4,1.3,0.4,2.8-0.4,4c0.4,0.2,0.9,0.5,1.3,0.7c-0.1,0.9-0.2,1.7-0.2,2.6c-0.9-0.4-1.5-1-2.3-1.4
		c-2.3,3.2-5.7,5.9-9.9,7.4c-2.2,0.9-4.8,1.3-7.2,1c4.7-1.3,9.2-3.2,12.7-6.2c1.2-1,2.2-2.1,3-3.3c-0.7-0.6-1.4-1-2-1.7
		C498.8,237.5,498.5,236.3,499.3,235.3 M500.6,236.3c0.3,0.8,1,1.4,1.7,2c0.3-0.7,0.7-1.4,0.2-2.1
		C501.9,236.2,501.2,236.2,500.6,236.3z M237.5,244.6c9.4-4.7,18.9-9.3,28.3-14c-0.3,1.6-1,3.5-3,4.3c-8.7,4.3-17.5,8.5-26.2,12.8
		c-0.2,0.1-0.5,0.2-0.7,0.2C236.5,246.9,236.9,245.7,237.5,244.6L237.5,244.6z M434.6,219.9c0.7-0.8,1.5-1.6,2.5-2.3
		c-0.7,1.2-0.3,2.5,0,3.8c0.4,1.4,0.8,2.7,1.4,4c0.4,1,1.8,1.3,3,1.5c0.7,0.2,1.5-0.2,1.3-0.9c-0.6-1.6-1.4-3.2-2.4-4.7
		c0.3-1,0.7-2,1-3c0.4,0,0.9,0,1.3,0c0.4,1.9,1.5,3.6,2.6,5.3c0,1.8-0.1,3.7-1,5.5c-0.6,1.2-2.4,1.6-3.9,1.5c-2-0.3-3.3-1.6-4.4-2.8
		c-0.6,1.5-2.2,2.7-4.1,3.2c-1.6,0.5-3.5-0.2-4.4-1.3c-1-1.3-1.1-2.8-1.1-4.2c0.1-2.1,0.6-4.5,2.9-5.7c0.2,0,0.5,0,0.7,0
		c-0.1,0-0.3,0.1-0.4,0.1c-1.4,2.1-1.5,4.6-0.2,6.7c0.4,0.7,1.3,1.2,2.2,1c1.2-0.2,2.1-0.9,2.9-1.6
		C434.4,224,434.4,221.9,434.6,219.9L434.6,219.9z M248.8,215.6c2.1-0.4,4,0.7,5.5,1.7c2,1.6,3.7,3.4,4.7,5.5c0.3,0.6,0.5,1.3,0.3,2
		c-0.2,0.9-0.2,1.9-1,2.6c-0.8,0.6-2.2,0.5-3.1,0c-0.9-0.5-1.8-0.9-2.8-1.2c-1.4,3-4.4,5.4-7.6,7.3c-2.5,1.5-5.3,2.8-8.2,3.9
		c-2,0.6-4.1,1.1-6.3,1.6c-0.8,0.2-1.7,0.2-2.6,0.1c0.5-0.1,1-0.1,1.5-0.3c4.6-2.1,9.2-4.3,13.4-6.9c2.9-1.8,5.7-3.7,7.7-6.2
		c-1-0.2-2-0.3-3-0.4c-0.8-1.8-0.8-4.1,0.9-5.6c-0.8-0.6-0.9-1.5-1.1-2.3C247.3,216.6,247.8,215.7,248.8,215.6 M252.8,220.1
		c0.4,1.4,0.4,2.8,0.5,4.1c1.4,0.1,2.8,0.7,4.2,0.4c0.7-0.3,0.2-1-0.1-1.3C256.1,222.1,254.4,221.1,252.8,220.1 M249.3,220.7
		c-0.5,0.5-1,1.2-0.9,1.8c0.8,0.8,2.2,1.2,3.4,1.3c0.1-0.4,0.3-0.8,0.4-1.2c0.3-0.8-0.4-1.5-1.1-2.1
		C250.7,220.2,249.7,220.2,249.3,220.7L249.3,220.7z M406.1,214c1.4,0.9,2.2,2.2,3.1,3.4c2.4,3.3,4.4,6.8,6.4,10.3
		c4.3,7.5,7.2,15.5,8.7,23.6c0.4,2.5,0.9,5,0.8,7.6c0.3,5.1,1,10.2,3.7,14.9c2,3.2,5.3,6,7.9,8c1.2,0.7,1.8,0.5,2.1,0.2
		c0.2-0.2,0.1-2.4,0.5-3.4c0.6-1.7,1.9-3.2,3.4-4.5c1.6-1.4,3.4-2.7,5.6-3.5c4.3-1.7,8.8-3.2,13.3-4.6c3.4-1,6.9-1.9,10.4-2.5
		c-15.2,0.1-30.4,0.2-45.5,0.3c0.8-2.9,1.5-5.8,2.3-8.7c1.6-1.7,3.6-3,5.6-4.4c8.7-5.7,18.7-9.9,28.9-13.7c-1.2-1.5-2.8-2.9-3.1-4.7
		c-0.6-2.5,0.7-5.1,2.4-7.2c1-1.2,1.9-2.5,3.5-3.3c1.5-0.8,3.6-0.9,5.3-0.3c5.6,2,11.5,5.5,15.8,8.7c0.4,0.3,1,0.6,1.2,1.1
		c-1,2.6-2.1,5.2-3.1,7.8c-4.5,0.8-9,1.5-13.4,2.7c0.4,2.2,1.2,4.6,0,6.7c-0.4,0-1-0.1-1-0.5c-0.2-1.8-1.3-3.5-2.4-5.1
		c-5.6,1.7-11.1,3.5-16.4,5.8c-4.2,1.9-8.5,3.9-11.7,6.9c23.3,0,46.7,0,70,0c-1.5,2.6-3.1,5.2-4.6,7.8c-15.3,2.9-30.5,6.1-45.3,10.3
		c-6.2,1.8-12.4,3.8-18,6.7c-0.6,0.3-0.9,1-0.5,1.5c0.9,1,2.4,1.5,3.7,2.1c2.8,1.2,6,1.9,9.1,2.7c2.2,0.5,4.4,1,6.7,1.6
		c-0.2,3.1-0.2,6.2-0.5,9.4c-1.8,0-3.7-0.2-5.5-0.4c-3.6-0.3-7.2-0.6-10.7-1.4c-4.7-1.2-9-3.4-12.3-6.3c-3.6-3.1-6.3-6.9-8.2-10.8
		c-2.6-5.5-4-12.2-4.5-18c-0.2,0-0.3,1.1-0.5,1.1c-0.6,2.6-1.4,4.8-2.5,7.3c-0.2,0.6-0.7,1-1.2,1.5c-3.5,3.2-7.2,6.2-11.1,9.1
		c-4,2.9-8.1,5.7-12.6,8.2c-4.7,2.5-9.8,4.8-15.4,5.8c-3,0.5-6.5,0.6-9.1-0.9c-3-1.6-4.4-4.4-5.2-7c-2.7,1.6-5.4,3.2-8.2,4.7
		c-2.5,1.3-5,2.7-7.9,3.5c-7.2,2.1-14.6,3.5-22,4.9c-5.3,1-10.6,1.9-16,2.7c5-2.2,10-4.4,14.9-6.6c13.4-6.1,26.6-12.4,39.2-19.5
		c1.7-6.5,4.5-13.1,9.9-18.3c0.1,0,0.2,0,0.3-0.1c-0.4,0.7-0.6,1.5-1.1,2.2c-3.2,4.5-5.5,9.5-6.4,14.6c5.7-3.3,11.3-6.8,16.6-10.5
		c3.3-2.3,6.3-4.8,9.1-7.4c0.8-0.7,1.8-1.4,2.1-2.4c0.1-0.6,0.1-1-0.4-2.4c-3.3-7.1-7.9-16-11-22.3c1-3.2,2-6.3,3.1-9.5
		c1.4,0.7,2.3,1.9,3.3,2.9c2.1,2.4,4,4.8,5.7,7.4c1,1.4,1.2,3,1.5,4.6c-1.4-1-2.4-2.3-3.9-3.2c0.1,0.2,0.2,0.4,0.3,0.7
		c2.4,3.8,4.1,7.9,5.2,12.1c0.7,2.5,1,5,0.8,7.6c-0.1,2.8-0.6,5.6-2.2,8.1c-1.4,2.2-3.3,4.2-5.3,6.1c-6.8,6.3-14.7,11.7-22.8,16.9
		c0,0.3,0.4,0.4,0.7,0.6c2.9,1.4,6.5,1.3,9.7,0.8c2.4-0.4,4.9-0.8,7.2-1.7c5.8-2.4,10.9-5.8,15.8-9.2c6.4-4.6,12.5-9.6,18.3-14.7
		c-1.9-5.4-3.9-10.8-6-16.2c-1.1-2.8-2.1-5.7-3.5-8.4c-2.2-3.6-4.3-7.3-6.2-11.1C404.3,219.7,405.2,216.9,406.1,214 M464.8,228.7
		c-0.7,0.2-1.3,0.8-1,1.5c0.1,0.5,0.8,0.6,1.1,1c1.4,1.3,2.8,2.7,4,4.1c3.1-0.9,6.2-1.7,9.3-2.5c-2.3-1.7-4.9-3.4-7.9-4.2
		C468.5,228.1,466.5,228.1,464.8,228.7L464.8,228.7z M532.7,225c9.5-4.6,18.9-9.3,28.3-13.9c-0.3,1.4-0.8,3-2.3,4
		c-9.2,4.5-18.4,9-27.6,13.5C531.6,227.3,532.2,226.1,532.7,225L532.7,225z M485,207.5c0.9-0.4,2.2-0.4,2.7,0.4c0.8,1,1,2.2,0.6,3.4
		c-0.8,2.2-2.7,4.1-4.7,5.7c-2.4,1.9-5.4,3.6-8.8,4.1c0.6-0.6,1.4-0.9,2.2-1.3c2.1-1.1,4.2-2.4,6-3.9c0.9-0.9,2-1.8,2.1-3
		c0.1-1-1.1-1.8-2.2-2c-1.7,0.2-2.7,1.4-4,2.2c-0.3-0.7,0.5-1.2,1-1.7C481.4,209.9,482.9,208.4,485,207.5L485,207.5z M361.8,202.7
		c2.9-1.4,5.7-2.9,8.7-4.3c-0.3,1.5-0.9,3.1-2.7,3.9c-6.4,3.1-12.7,6.3-19.1,9.4c0.7-1.2,1.4-2.3,2.2-3.5
		C354.5,206.3,358.2,204.5,361.8,202.7L361.8,202.7z M640.4,193.6c4.2,2.2,7.7,5.4,9.6,9.2c1.8,3.6,1.8,7.8,0.3,11.5
		c-0.2,0.4-0.6,0.7-1,1.1c0.7-2.5,0.9-5.2,0-7.7c-1.3-4-4.9-7.3-9.4-9.2C640.2,196.9,640.2,195.2,640.4,193.6L640.4,193.6z
		 M538.8,195.2c0.7-0.7,1.4-1.4,2.2-2.1c-0.8,1.4-0.2,2.9,0.2,4.3c0.4,1.3,0.8,2.6,1.4,3.8c0.8,0.8,2.1,1.2,3.4,1.2
		c0.6,0,0.9-0.5,0.7-0.9c-0.6-1.6-1.4-3.1-2.3-4.5c0.2-1.1,0.7-2.1,1-3.2c0.4,0,0.9,0.1,1.3,0.1c0.3,1.9,1.6,3.6,2.5,5.3
		c0,1.4-0.2,2.8-0.5,4.1c-0.2,0.9-0.7,2-1.9,2.5c-1,0.3-2.2,0.5-3.3,0.1c-1.5-0.5-2.6-1.6-3.6-2.6c-0.6,1.5-2.1,2.7-4,3.2
		c-1.5,0.6-3.4,0-4.3-1c-1.1-1.2-1.3-2.7-1.3-4.2c0.1-1.4,0.2-2.8,1-4.1c0.5-0.9,1.2-1.7,2.4-2c-1.5,2-1.7,4.6-0.6,6.8
		c0.3,0.6,1,1.2,1.9,1.2c1.4-0.1,2.4-0.8,3.3-1.6c0-1.8,0.1-3.5,0.1-5.3C538.6,196,538.4,195.6,538.8,195.2L538.8,195.2z
		 M309.7,180.9c3.4,1.8,6.2,4.5,7.5,7.6c1.1,2.5,1,5.3,0,7.8c-0.1,0.4-0.5,0.7-0.9,1c0.7-2.4,0.6-4.9-0.6-7.2
		c-1.3-2.3-3.6-4.2-6.4-5.5C309.5,183.4,309.6,182.1,309.7,180.9L309.7,180.9z M421.1,178.3c0.8-0.8,1.5-1.7,2.5-2.2
		c-0.7,0.8-0.4,1.8-0.2,2.7c0.4,1.7,1,3.4,1.6,5c0.2,0.7,1.1,1,1.8,1.2c0.7,0.2,1.5,0.4,2.1,0.1c0.4-0.3,0.2-0.8,0.1-1.2
		c-0.7-1.4-1.3-2.9-2.2-4.2l1-3.1c0.5,0,0.9,0.1,1.4,0.1c0.2,1.9,1.5,3.6,2.5,5.3c0,1.5-0.2,3-0.6,4.4c-0.2,0.9-0.7,1.7-1.7,2.2
		c-1.2,0.4-2.6,0.5-3.7,0c-1.3-0.6-2.4-1.5-3.2-2.5c-0.7,1.5-2.3,2.7-4.2,3.2c-1.3,0.4-2.9,0-3.8-0.9c-1.2-1-1.5-2.3-1.6-3.6
		c-0.1-1.6,0.1-3.3,0.9-4.8c0.5-0.9,1.3-1.7,2.4-2.1c-1.1,1.7-1.6,3.6-1,5.5c0.3,1,0.7,2.2,2.1,2.5c1.5,0.2,2.7-0.7,3.6-1.5
		C421.1,182.5,420.9,180.4,421.1,178.3L421.1,178.3z M535.9,175.6c5-1.7,10-3.4,15.1-4.9c-0.2,0.9-0.6,2-1.7,2.4
		c-7.2,2.4-14.5,4.9-21.6,7.6c-1.4,0.6-2.9,1.2-4,2.2c0.8,0.7,2,0.9,3,1.2c0,0.7,0,1.3,0,2c-1.5-0.3-3-0.7-4.2-1.5
		c0.1-0.9,0-1.9,0.2-2.8c0.2-0.9,1.3-1.2,2.1-1.7C528.3,178.3,532.1,177,535.9,175.6L535.9,175.6z M311.2,167.4l0.2,0.2
		c-0.4,0.5-0.2,1.1-0.1,1.6c0.2,1.1,0.6,2.2,1.1,3.3c0.2,0.5,0.8,0.7,1.3,0.9c0.5,0.1,1.2,0.3,1.4-0.2c-0.3-1.2-1.1-2.2-1.6-3.3
		c0.2-0.6,0.3-1.3,0.7-1.9c0.3,0,0.5,0,0.8,0c0.3,1.2,1.1,2.4,1.7,3.5c0,1.2-0.1,2.4-0.6,3.5c-0.4,0.8-1.5,1-2.4,0.9
		c-1.3-0.1-2.2-1-3-1.8c-0.5,1.1-1.8,2-3.3,2.2c-1.3,0.1-2.3-0.7-2.7-1.7c-0.4-1.2-0.4-2.5,0-3.7c0.3-0.9,0.8-1.8,1.9-2.1
		c-0.9,1.2-1.1,2.6-0.6,3.9c0.2,0.5,0.6,1.2,1.4,1.3c0.9,0,1.6-0.5,2.2-1c0.2-1.3,0-2.7,0.2-4C310.2,168.3,310.8,167.9,311.2,167.4
		L311.2,167.4z M352.6,165.1c0.6,0.1,0.9,0.5,1.4,0.7c2.7,1.8,5,4.1,6.1,6.8c1,2.5,1,5.1,0.1,7.6c-0.1,0.4-0.5,0.8-0.8,1.1
		c0,0-0.1-0.1-0.1-0.2c0.7-2.3,0.6-4.7-0.6-6.9c-1.2-2.4-3.6-4.3-6.4-5.6C352.4,167.5,352.5,166.3,352.6,165.1L352.6,165.1z
		 M377.6,163c0.7-1.3,2.5-2.5,4.4-2.2c1,0.2,1.6,0.8,2,1.5c0.7,1.4,0.8,3,0.5,4.5c1.2,1.1,2.4,2.2,2.9,3.7c0.9,1.9,0.1,3.9-0.7,5.7
		c-1,2.4-2.9,4.6-3.2,7.2c-0.1,0.6,0.2,1.3,1,1.5c1.3-0.3,1.5-1.5,1.8-2.5c0.4-0.1,1.1-0.1,1.2,0.3c0.2,1.1-0.4,2.2-0.9,3.3
		c-0.5,0.8-1.1,1.7-2.3,1.9c-0.9,0.1-1.7-0.5-2.1-1.1c-1.1-1.7-0.7-3.8,0.2-5.5c1.4-2.8,3.3-5.5,3.1-8.6c0-1.3-0.7-2.5-1.8-3.5
		c-1.7,3.5-4.3,6.7-7.4,9.5c-1.6,1.6-3.9,2.5-6,3.5c-2,0.8-3.9,1.6-6,2.2c4-2.3,7.8-4.8,11.2-7.7c2.7-2.4,5.3-5.2,6.3-8.4l-0.1-0.2
		c-1.5-0.8-3.3-1.4-4-2.8C377.3,164.6,377.3,163.7,377.6,163 M379.1,163.3c-0.4,0.2-0.1,0.6,0.2,0.7c0.9,0.4,1.9,0.8,2.9,1.2
		c0-0.8,0.2-1.7-0.7-2.3C380.7,162.5,379.6,162.9,379.1,163.3L379.1,163.3z M537.1,161.6c0.5-0.7,1.3-1.5,2.4-1.4
		c1.2,0.2,2.4,0.7,3.1,1.5c0.4,0.5,0.7,1.3,0,1.7c-0.4,0.3-0.6,0.7-1,0.9c-0.6-0.6-1.1-1.8-2.3-1.7c-1.5,0.4-2.4,1.7-2.9,2.9
		c-1,2.4-1.2,5-1.5,7.5c-0.3,0.2-0.7,0.4-1.1,0.6c0-2.5-0.7-5.3-3.1-7.2c-1.1-0.1-2.4-0.2-3.1-1.1c-0.8-1.1-1.3-2.4-0.8-3.7
		c1.2-0.2,2.1,0.5,2.9,1.1c2.1,1.5,3.5,3.6,4.7,5.6C535.2,166,535.7,163.7,537.1,161.6L537.1,161.6z M236.5,162.5
		c0.6-0.9,1.4-1.8,2.5-2.4c-1.8,3-3.9,6.1-4.5,9.4c-0.2,1.1-0.2,2.4,0.7,3.3c0.8,0.8,2.3,0.8,3.5,0.6c1.3-0.4,1.9-1.5,2.5-2.5
		c0.3,0,0.3,0.3,0.5,0.4c-0.7,2.2-1.4,4.5-3.4,6.1c-1.9,1.6-5.7,0.8-6.6-1.2c-0.7-1.4-0.5-3-0.1-4.5
		C232.5,168.4,234.4,165.4,236.5,162.5L236.5,162.5z M415.5,159c3.4,1.8,6.2,4.5,7.5,7.7c0.7,1.7,0.9,3.4,0.6,5.1
		c-0.2,1.2-0.4,2.5-1.3,3.6c-0.1-0.3,0-0.7,0-1c0.6-2.5,0.1-5.1-1.5-7.3c-1.3-1.8-3.3-3.3-5.7-4.4
		C415.3,161.5,415.4,160.3,415.5,159L415.5,159z M463.3,157.4c1.4,0.6,2.2,1.6,3.1,2.5c2.1,2.5,3.9,5.2,5.5,7.9
		c0.2,0.4,0.2,0.8,0.3,2c-1-0.8-2.1-1.7-3.6-1.9c-0.3,0.4-0.2,0.9,0,1.4c1.9,4.6,4,9.1,5.8,13.7c1.2,3,2.2,6.1,2.2,9.2
		c0.1,2.9-0.6,5.8-1.6,8.6c-1.1,2.6-2.8,5.2-5.6,7c-2.3,1.5-5.4,2.1-8.3,1.9c-3.6-0.2-7-1.6-9.5-3.6c-1.3-1-2.4-2.2-3.4-3.4l0.4-0.1
		c-0.1,0-0.3,0-0.4,0c-2.2-3-3.9-6.3-4.9-9.7c0.1-0.4-1-0.4-0.9,0c-1.4,5-3.6,9.8-7.2,14.1c-2.1,2.4-4.8,4.6-8.2,5.9
		c-3.7,1.4-8,1.5-11.9,0.6s-7-3.3-8.7-6.2c-2.4-4.1-2.8-8.8-2.5-13.3c0.5-3.6,1.7-7.2,2.8-10.7c0.4-1.1,0.7-2.2,0.2-3.3
		c-0.2-0.1-0.5-0.2-0.6-0.2c-0.5,0.3-1.1,0.5-1.5,0.9c-2.9,2.5-4.5,5.7-5.8,8.9c-1,2.5-1.7,5.2-2.3,7.8c-0.7,4.2-1.7,8.4-4.2,12.2
		c-1.3,2-3.3,4.1-6.3,4.6c-2.8,0.3-5.7-0.4-7.7-1.9c-2.5-1.8-3.6-4.5-4.2-7c-1-4.6-0.7-9.3-0.1-13.9c0.4-2.8,1.1-5.7,1.8-8.4
		c0.2,0,0.5,0,0.8,0c-1,4.7-1.7,9.5-1.6,14.3c0.2,2.7,0.6,5.5,2,8c0.9,1.7,2.6,3.3,4.8,4.1c2.1,0.7,4.7,0.8,6.7-0.2
		c2-1.1,3-3,3.8-4.7c1.5-3.9,2.2-7.9,3.3-11.9c1.2-4,3-7.9,5.2-11.7c1.2-2.2,2.6-4.3,4.4-6.3c1.6-1.7,3-3.7,5.2-4.9
		c0.2,0,0.5,0,0.7,0c0.4,1.3-0.1,2.7-0.1,4c-0.1,2.2-1.2,4.3-1.7,6.4c-0.7,2.4-1.3,4.9-2,7.4c-1,3.5-1.6,7.2-0.4,10.8
		c0.9,2.8,3.3,5.2,6.6,6.5c2.1,0.9,4.5,1.3,6.9,1.4c3.4,0.3,6.9-0.1,9.9-1.3c3.6-1.5,6.2-4.2,7.9-7.1c1.6-2.9,2.6-6,2.8-9.2
		c0-6.3-0.5-12.7-3.2-18.6c-0.3-0.8-0.8-1.7-0.6-2.6c0.4-2.4,1.4-4.7,2.6-7c0.1-0.3,0.5-0.3,0.7-0.4c1.3,3,2.5,6.1,3.3,9.2
		c1,4.1,1.5,8.2,2.1,12.3c0.5,2.9,0.6,5.9,1.5,8.8c0.8,2.4,2,4.7,3.9,6.7c2.3,2.5,5.7,4.4,9.6,5.1c3.3,0.6,6.8-0.2,9.6-1.6
		c1.5-0.8,3-2.1,2.5-3.6c-4.6-9.6-8.4-19.4-12.2-29.2c-0.2-0.8-0.7-1.6-0.8-2.4C460.8,162.2,462,159.8,463.3,157.4L463.3,157.4z
		 M334.7,165.4c1.6-2.8,3.1-5.6,4.7-8.4c3.1,5.7,5.6,11.5,7.5,17.5c0.2,1.2-0.2,2.4-0.2,3.6c-1.1-1.5-2.3-3-3.5-4.5
		c0.3,2.7,0.8,5.5,1.2,8.2c2.2,16.2,4.1,32.4,5.7,48.7c1.9-1.1,3.3-2.6,4.1-4.3c1-1.9,2.2-3.8,3.7-5.6c0.6-0.6,1.3-1.4,2.4-1.2
		c0.6,0,0.9,0.6,1,1c0.3,1.5-1.2,2.8-0.9,4.4c0.1,1.2,1.3,2.3,2.8,2.7c2.5,0.7,5.3,0.4,7.9,0.1c1.2-0.2,2.6-0.4,3.2-1.3
		c-0.6-1.5-1.3-3.1-2-4.6c1.1-2.2,2.3-4.4,3.5-6.6c0.3-0.5,0.5-1.1,1-1.5c0.8,2.5,1,5.1,1.4,7.7c0.3,4.2-0.5,8.5-3.1,12.1
		c-1.4,1.9-3.5,3.6-6.3,4.1c-2.4,0.5-5,0.2-7.2-0.7c-2.5-1.1-4.2-3.1-5.1-5.3c-1.4,2.5-3.1,4.8-5.4,6.8c0.3,3.2,0.6,6.4,0.8,9.6
		c0.2,3.6-1,7.1-2.3,10.5c-0.7,1.5-1.3,2.9-2.1,4.3c-7.2,9.2-16.6,17.4-28,23.6c-7.4,4-15.6,7.2-24.3,9.2c-4.5,1-9.1,1.9-13.8,2.2
		c-4.8,0.1-9.8-0.4-14.3-1.8c-4.2-1.3-8-3.7-10.3-6.8c-8.4,0.7-16.8,1.1-25.2,1.1c7.5-2.1,14.9-4.4,22.2-7
		c-4.1-16.7,5.7-35,12.9-44.7c-5,8.2-8.3,16.6-9,25.1c-0.4,5.7,0.1,11.8,3.5,17c9-3.3,17.8-7.1,26.2-11.3c7.1-3.6,14-7.6,20.3-12.1
		c3-2.2,5.8-4.4,8.3-7c0.7-0.7,0.4-1.6,0.1-2.4c-0.5-1.3-1.2-2.5-1.8-3.8c-4.3,1.4-8.8,2.3-13.4,2.3c-2.5,0.1-5.1-0.3-7.3-1.4
		c-1.9-0.9-3.2-2.4-3.8-4.1c-0.8-2.2-0.4-4.5,0-6.7c0.7-3.2,2.2-6.4,5.1-8.8c2-1.7,4.6-3,7.5-3.3c3.3,0,6.4,1.3,8.8,3.1
		c3,2.2,5,5.2,6.6,8.2c2.9-1.4,5.8-3,7.9-5c2.1-1.8,4.4-3.6,7.1-4.7c0.7-0.3,1.9-0.7,2.3,0.1c0.5,1.1,0,2.3-0.3,3.3
		c-0.9,1.6,0.2,3.3,1.5,4.5c1.8,1.6,4.9,1.8,7.4,1.4c-2.7-21.8-5.4-43.6-8.1-65.4C335.4,166.7,335,166.1,334.7,165.4 M298.2,232.3
		c-1.3,0.4-3,1.1-3.2,2.4c0.3,1,1.7,1.2,2.8,1.4c3.4,0.5,7,0.5,10.4,0c-0.1-0.1-0.2-0.3-0.3-0.4c-1.8-1.6-4-3-6.7-3.4
		C300.2,232.2,299.2,232,298.2,232.3 M320.5,241.2c0.4,4.4-0.4,8.9-2.2,13.1c-0.7,1.5-1.2,3-2.5,4.2c-6.3,6.7-14.5,12.2-23.1,17
		c-7.7,4.2-15.7,8-24.2,11.1c1.4,0.6,3,1,4.5,1.3c4.2,0.7,8.6,0.3,12.8-0.1c13.2-1.6,25.7-6.1,36.4-12.4c7.1-4.1,13.6-9,19.3-14.3
		c1.9-1.9,4.2-3.8,4.7-6.2c-0.4-4.2-1-8.5-1.5-12.7c-2.9,0.9-6.6,1.2-9.3-0.4c-3.2-1.9-4.5-5.2-5-8.3
		C327.7,236.4,324.4,239.1,320.5,241.2L320.5,241.2z M482.6,159.4c0.7-1,1.4-2,2.7-2.6c-1.8,2.9-3.7,5.8-4.5,9
		c-0.3,1.4-0.4,3.1,1,4.1c0.8,0.3,1.8,0.5,2.7,0.3c1.7-0.3,2.4-1.7,3.1-2.8c0.2,0.4,0.3,0.9,0.1,1.4c-0.6,1.9-1.4,3.9-3.1,5.4
		c-2,1.7-6,0.7-6.8-1.4c-0.7-2-0.1-4,0.7-5.9C479.5,164.1,481,161.7,482.6,159.4L482.6,159.4z M272.3,164.8c1.8-2.7,3.5-5.5,5.2-8.2
		c2.8,5.8,5,11.8,6.6,17.8c0.1,1.1-0.3,2.2-0.4,3.3c-1.3-1.4-2-3-3.3-4.3c0.7,4.6,1,9.2,1.4,13.8c0.5,5.9,1,11.9,1.5,17.8
		c3.8-0.5,7.3-2.3,9.6-4.8c3.5-3.7,5-8.3,5.5-12.8c0-5.8-0.4-11.7-2.7-17.3c-0.4-1.1-1.2-2.2-1.1-3.4c0.3-2.2,1.2-4.4,2.2-6.5
		c0.2-0.5,0.4-1.1,1.2-1.3c1.1,2.8,2.3,5.6,3.1,8.4c1.2,4.5,1.7,9.1,2.4,13.6c0.4,2.8,0.6,5.6,1.4,8.3c1.1,3.6,3.5,7.2,7.3,9.5
		c2.9,1.7,6.5,2.9,10.2,2.4c2.6-0.4,5.2-1.2,7-2.7c0.8-0.7,1.4-1.7,1-2.6c-3.7-7.5-6.7-15.2-9.7-22.9c-1-2.7-2.1-5.4-3.1-8
		c-0.3-0.7,0.1-1.4,0.2-2.1c0.6-2,1.5-4.1,2.6-6c1.2,0.5,2.1,1.4,2.9,2.3c2.5,2.8,4.4,5.8,6.2,8.9c-0.1,0.4-0.2,0.8-0.2,1.2
		c-0.9-0.9-2.1-1.7-3.6-1.9c-0.2,0.4-0.2,0.9,0,1.4c1.6,3.9,3.4,7.8,5,11.7c1.4,3.5,3.1,8.5,3,10.7c-0.3,3-0.8,7.1-2,9.9
		c-1.3,2.5-3.5,5.5-6.5,6.9c-2.6,1.2-5.8,1.4-8.7,1c-3.9-0.6-7.2-2.6-9.5-5c-3.3-3.4-5.4-7.5-6.6-11.7c-0.2,0-0.5,0-0.7,0
		c-1.1,4.2-2.9,8.3-5.5,12.1c-2.4,3.4-5.7,6.5-10.2,8.2c0.8,10.4,1.6,20.8,2.2,31.3c0.1,5.1-0.2,10.3-0.5,15.4c0,0.7-0.4,1.3-0.7,2
		c-0.9,2.2-1.8,4.4-2.8,6.6c-0.2,0.4-0.4,0.7-0.7,1c-0.1-9.8-1.2-19.6-2-29.4c-0.8-8.6-1.5-17.2-2.3-25.9c-3.6-0.1-7.4-0.9-10.1-2.9
		c-3.1-2.3-4.7-5.6-5.5-8.8c-0.7-2.9-0.8-5.8-0.5-8.7c0.6-3.8,1.8-7.5,3-11.2c0.2-0.7,0.3-1.4,0.1-2c-0.1-0.2-0.1-0.5-0.5-0.6
		c-0.5-0.1-0.9,0.3-1.3,0.5c-2,1.6-3.4,3.6-4.5,5.6c-2.2,4.2-3.5,8.6-4.2,13.1c-0.6,3-1.4,5.9-2.8,8.7c-1.1,2.1-2.5,4.2-4.9,5.5
		c-2.1,1.1-4.8,1-7,0.3c-2.9-0.8-4.9-2.9-6-5.1c-1.9-3.8-2-7.9-1.9-11.9c0.3-4.7,1.1-9.4,2.4-13.9c0.2,0,0.5-0.1,0.7-0.1
		c-1,5.2-1.9,10.6-1.4,15.9c0.2,2.3,0.8,4.6,2,6.7c1.1,1.8,2.9,3.4,5.4,4c2.1,0.5,4.6,0.5,6.3-0.6c1.9-1.2,2.9-3.1,3.6-5
		c1.7-4.6,2.3-9.4,4-14c1.7-4.5,3.9-8.9,6.8-13c1.6-2.1,3.4-4.2,5.4-6.2c0.6-0.5,1.2-1.2,2.2-1.2c0.5,0.3,0.3,0.9,0.4,1.3
		c-0.3,2.1-0.3,4.2-1.1,6.2c-1.4,4.1-2.4,8.3-3.4,12.5c-0.7,3.3-0.9,6.7,0.7,9.9c1.2,2.4,3.6,4.3,6.5,5.4c1.6,0.6,3.3,1,5,1.2
		c-1-11.6-2-23.3-3-34.9C273,168.4,273.2,166.5,272.3,164.8L272.3,164.8z M657.9,164.8c1.6-2.9,3-5.9,4.6-8.8
		c2.4,6.3,4.8,12.6,6.8,19c0.3,1.1,0.7,2.2,0.8,3.3c-0.2,0.9-0.6,1.8-0.6,2.7c-0.9-1.3-1.7-2.6-2.6-3.9c1.1,16.4,2.4,32.8,3.9,49.1
		c0.5,5.3,1.1,10.5,1.4,15.8c0.4,9.8,0,19.8-3.7,29.1c-1.4,3.4-3.2,6.7-5.5,9.8c-3.1,4-7.6,7.1-12.6,9.6c-8.9,4.2-19.1,6.4-29.3,7.8
		c-0.6,0.2-0.8-0.4-1.1-0.6c9.1-3.5,17.8-7.5,26-12.2c4.1-2.4,8.1-5,11.5-7.9c3.9-3.5,6.9-7.7,8.2-12.3c1.5-4.6,1-9.4,0.6-14.1
		c-0.9-10.8-1.9-21.6-2.8-32.4c-1.4-16.6-2.8-33.3-4.2-49.9c-0.3-1.2-1.2-2.2-1.6-3.3C657.5,165.3,657.8,165.1,657.9,164.8
		L657.9,164.8z M634.9,167.7c5.3-4.4,10.5-8.9,15.6-13.5c0.2,4.1-2.4,7.9-5.4,11.1c-1.6,1.9-3.8,3.3-5.9,4.8c-1,0.7-1.9,1.4-2.8,2.1
		c0.3,1.1,0.7,2.2,0.8,3.3c-0.1,1-0.3,2.1-0.4,3.1c-1.1-1.4-2-3-3.3-4.3c0.6,4.7,0.9,9.3,1.2,14c1,13.7,2,27.4,2.8,41.1
		c-0.1,0.4,0.3,0.6,0.6,0.8c3.8,3.3,7.5,6.7,11.1,10.2c2.8,2.9,5.4,5.9,7.6,9.2c2.9,4.2,5.2,8.7,5.9,13.6c0.4,3,0.2,6.1-1.1,9
		c-2.2-7.9-6.2-15.1-10.9-20.1c-3.9-4.2-8.3-8.4-12.6-12.4c0.3,4.9,0.6,9.8,0.8,14.7c0.2,6.3-0.1,12.6-0.4,18.9c0,1.2-0.7,2.3-1,3.4
		c-1,2.6-1.8,5.2-3.1,7.7c-0.2-5.8-0.5-11.6-0.9-17.5c-0.8-10.4-1.6-20.8-2.4-31.2c-0.1-0.8-0.1-1.7-0.2-2.5c-2.9-2.7-6-5.1-9-7.7
		c-5.3-4.4-10.6-8.7-16.1-12.8c1,10.9,2.1,21.7,3.1,32.6c0.4,4.9,1,9.9,1,14.8c0.1,4.3,0,8.6-0.1,12.9c0,2.7,0.1,5.5-1.2,8.1
		c-1.8,3.2-5,5.9-8.9,7.5c-3,1.3-6.5,2-9.9,2c-2.3,0-4.6-0.4-6.7-1.3c-3.6-1.6-6.2-4.3-7.8-7.3c-1.1-2-1.9-4.2-2.4-6.4
		c-0.2-1-0.5-2.1-1.6-2.7c-0.9-0.5-1.9-0.1-2.7,0.2c-2,0.9-4,1.9-5.4,3.3c-4.8,4.6-7,10.3-8.5,16.1c-0.7,2.5-1.8,4.9-3.7,7
		c-1.4,1.4-3.4,2.8-5.8,2.9c-1.9,0-3.7-0.6-5.3-1.2c-3.7-1.5-6.2-4.3-7.7-7.3c-0.4-0.8-0.9-1.5-1.7-4.3c-0.9-3.1-1.2-7.7-0.8-12.4
		c0.2-0.5-0.4-0.6-0.8-0.9c-1.3-0.9-1.8-2.3-1.8-3.6c0-4.9,0.9-9.8,3.4-14.3c2.1-3.7,5.2-6.9,8.3-10.1c0.3-0.3,0.8-0.6,0.9-1
		c-1.9-1.7-3.9-3.4-6-5c-1.2-1.1-2.6-1.9-3.7-3c-4.3-3.7-8.5-7.4-12.7-11.2c0.4,5.5,0.7,10.9,1.1,16.4c0.3,5.1,0.7,10.1,0.6,15.2
		c0,4.5-0.2,9-0.5,13.6c0,1.1-0.6,2.2-0.9,3.2c-1,2.6-1.9,5.3-3.2,7.9c-0.2-2.1-0.1-4.3-0.3-6.4c-0.5-10.7-1.5-21.4-2.3-32
		c-0.6-8.2-1.2-16.3-1.9-24.5c-2.8-2.8-5.8-5.4-8.6-8.2c-3.3-3.2-6.5-6.5-9.2-10.1c-3.9-5.6-8.3-11-13.7-15.7
		c-0.3-0.2-0.2-0.6-0.2-0.9c0.2-3.1,0.3-6.1,0.5-9.2c3.9,2,7.5,4.2,11.1,6.5c2.7,1.9,5.4,3.9,7.6,6.2c1.1,1.1,2.2,2.4,1.8,3.9
		c-1.3-0.4-2.6-0.7-3.9-1.3c-0.5-0.2-1-0.4-1.6-0.4c-0.1,0.9,0.7,1.5,1.2,2.2c4,4.7,8.2,9.2,12.5,13.7c0.6,0.6,1.2,1.1,1.6,1.8
		c-0.3-5.3-0.8-10.5-1.1-15.8c-0.6-8.1-1.2-16.3-1.8-24.4c-0.1-1.2,0-2.5-0.7-3.6c-0.3-0.5,0.1-0.9,0.4-1.3c1.5-2.3,2.9-4.5,4.3-6.8
		c0.1-0.2,0.4-0.6,0.5-0.2c2.7,5.5,4.7,11.1,6.2,16.8c0.5,1.4-0.1,2.8-0.3,4.1c-1-1.5-2.1-3-3.2-4.6c1.4,14.3,2.2,28.6,3.3,42.9
		c0.7,0.9,1.8,1.7,2.7,2.6c8.4,7.7,17.2,15.1,25.9,22.6c6.5-5.7,13.1-11.4,19.6-17c0.3-0.2,0.5-0.5,0.4-0.8c-2-17.8-4-35.6-5.9-53.4
		c-0.2-1.8-0.2-3.7-1-5.4c1.6-2.8,3.4-5.5,5-8.2c0.9,1.5,1.5,3,2.2,4.5c1.6,3.8,3.1,7.6,4.2,11.5c0.2,0.9,0.6,1.8,0.5,2.7
		c-0.1,0.8-0.3,1.6-0.4,2.5c-1.1-1.4-2.1-2.9-3.2-4.4c1.6,14.3,3.1,32.4,4.5,45.7c6.8-5.7,13.6-11.5,20.5-17.2
		c0.7-0.7,1.6-1.3,2.3-2c-3.3-3.5-6.5-7.2-9.6-10.9c-1.1-1.2-1.9-2.5-3-3.8c-2.2-2.7-4.4-5.4-7.4-7.5c-0.3-3.5-0.4-6.9-0.6-10.4
		c7,4.8,14.1,9.6,20.9,14.6c0.7,0.5,1.2,1,1.5,1.7c-0.6-5.4-1.2-10.8-1.7-16.2c-0.1-0.5-0.1-1-0.3-1.5s-0.7-1-0.3-1.5
		c1.6-2.6,3.1-5.3,4.7-7.9c2.8,5.2,5,10.6,6.7,16.1c0.2,0.8,0.6,1.5,0.5,2.3c-0.1,0.9-0.2,1.8-0.3,2.6c-1-1.3-2-2.6-2.9-3.9
		c-0.2-0.2-0.3-0.4-0.5-0.6c0.9,6.2,1.5,12.4,2.2,18.6c5.1-4.3,10.4-8.5,15.7-12.7c2.4-1.8,4.8-3.5,7.1-5.3
		c-0.2-2.4-0.3-4.8-0.6-7.2c0-0.8-0.9-1.5-0.3-2.3c1.7-2.5,3.3-5.1,4.8-7.6C632.3,160.7,633.6,164.2,634.9,167.7 M604.4,197.9
		c0.1,1,0.2,1.9,0.3,2.9c1.7,1.6,3.4,3.2,5.1,4.8c6.7,6,13.7,11.8,20.5,17.7c-1.1-14.6-2.2-29.3-3.3-43.9
		C619.3,185.4,611.7,191.6,604.4,197.9 M589.9,184.6c2.2,2.7,4.4,5.3,6.8,7.8c-0.2-2.3-0.5-4.7-0.7-7c-0.1,0.2-0.3,0.4-0.4,0.6
		C593.9,185,591.9,184.3,589.9,184.6 M576.1,222.5c-1.4,1.3-2.9,2.5-4.2,3.8c0.3,4.2,1,8.3,1.4,12.4c0.2,6.9-1.2,14.2-6.6,19.8
		c0.2-0.9,0.1-1.8,0.1-2.7c0-3.1,0.2-6.2,0.1-9.2c0-3,0.1-2.7-0.1-8.9c-0.1-2.5-0.5-4.6-0.7-6.4c-1.9,1.6-3.6,3.2-5.5,4.7
		c-3.7,3.2-7.5,6.3-11.3,9.4c3.8,3.2,6.2,7.5,6.8,11.9c0.6,4.7-0.8,9.6-4.7,13.3c-3.4,3.2-8.3,5.2-13.4,6.1
		c-2.4,0.4-4.9,0.7-7.3,0.1c0.3,2,0.7,3.9,1.2,5.8c0.9,3.3,2,6.6,4.2,9.4c1.2,1.5,2.8,2.9,5,3.3c2.4,0.5,4.8-0.5,6.5-1.8
		c1.5-1.1,2.2-2.6,2.8-4c1.9-4.3,2.5-8.9,5-13c1.7-3.3,4-6.4,7.2-9c1.7-1.4,3.6-2.5,5.6-3.6c1.4-0.7,3-1.2,4.7-0.8
		c1.5,0.4,2.6,1.4,3.3,2.5c1.6,2.4,2,5.2,3.4,7.8c1,2.1,2.2,4.2,4.5,5.7c2.3,1.4,5.3,1.9,8.2,1.8c5-0.2,13.2-3.4,13.6-4.3
		c0.4-0.9-0.7-8.1-1.2-12.1c-2.2-19.7-4.2-39.5-6.4-59.2c-0.1-0.5-0.7-0.9-1-1.4C590,210.1,583,216.3,576.1,222.5 M543.6,250.8
		c-1.5,1.4-2.9,2.8-4.3,4.2c-2.7,2.8-5.3,5.7-7.3,8.9c-0.5,0.8-1,1.8-0.4,2.7c0.7,0.9,2.1,1,3.3,1c5.2-0.2,10.2-2,14.4-4.3
		c1.4-0.6,2.8-1.8,2.2-3.1c-0.7-1.8-2-3.4-3.3-4.9c-1.4-1.5-2.8-3-4.3-4.4C543.8,250.7,543.6,250.8,543.6,250.8L543.6,250.8z"/>
</g>
</svg>
