<?xml version="1.0" encoding="UTF-8"?><svg id="a" xmlns="http://www.w3.org/2000/svg" width="945" height="630" viewBox="0 0 945 630"><path d="m0,0h945v630H0V0Z" fill="#fff"/><path d="m350,70h595v70H350v-70Z" fill="#0038a8"/><path d="m350,210h595v70H350v-70Z" fill="#0038a8"/><path d="m0,350h945v70H0v-70Z" fill="#0038a8"/><path d="m0,490h945v70H0v-70Z" fill="#0038a8"/><path d="m167.077,209.211l11.583,17.296c-47.588,34.441-18.535,54.805-52.261,65.829,20.976-20.47-2.773-23.628,14.901-66.294" fill="#fcd116" stroke="#7b3f00" stroke-linecap="square" stroke-miterlimit="217.135" stroke-width="2.428"/><path d="m145.21,193.59l-4.039,20.418c-58.003-9.298-51.86,25.647-83.502,9.595,29.307.357,15.407-18.929,58.073-36.602" fill="#fcd116" stroke="#7b3f00" stroke-linecap="square" stroke-miterlimit="221.183" stroke-width="2.428"/><path id="b" d="m145.211,193.593l-9.138-1.647.094.378c-24.38,5.975-37.618,16.082-47.987,23.764-5.187,3.84-9.662,7.105-14.515,8.874-3.214,1.191-6.664,1.607-10.07,1.213,25.168,8.941,23.502-20.828,77.578-12.161l4.038-20.422Z" fill="#7b3f00" stroke="#7b3f00" stroke-linecap="square" stroke-miterlimit="221.183" stroke-width="1.105"/><path id="c" d="m135.89,191.202c-49.167,12.035-53.816,41.037-78.221,32.401" fill="none" stroke="#7b3f00" stroke-miterlimit="221.183" stroke-width="2.428"/><path d="m175,175l-16.329-16.329-73.475,106.13,106.128-73.476-16.329-16.329-89.804,89.805" fill="#fcd116" stroke="#7b3f00" stroke-miterlimit="217.135" stroke-width="2.428"/><path d="m140.791,167.08l-17.294,11.582c-34.44-47.591-54.806-18.536-65.83-52.262,20.47,20.976,23.822-2.733,66.489,14.94" fill="#fcd116" stroke="#7b3f00" stroke-linecap="square" stroke-miterlimit="221.185" stroke-width="2.428"/><path id="d" d="m140.79,167.084l-5.297-7.626-.201.333c-21.465-13.015-37.972-15.229-50.736-17.129-6.383-.953-11.856-1.808-16.539-3.989-3.115-1.43-5.849-3.576-7.978-6.262,11.475,24.119,31.346,1.891,63.455,46.258l17.295-11.585Z" fill="#7b3f00" stroke="#7b3f00" stroke-linecap="square" stroke-miterlimit="221.185" stroke-width="1.105"/><path id="e" d="m135.889,158.801c-43.276-26.257-67.071-9.037-78.222-32.401" fill="none" stroke="#7b3f00" stroke-miterlimit="221.185" stroke-width="2.428"/><path id="f" d="m175,175.002v-23.091l-127,23.091,127,23.091v-23.091H48" fill="#fcd116" stroke="#7b3f00" stroke-miterlimit="221.185" stroke-width="2.428"/><path id="g" d="m175,175.002v23.091-23.091H48l127,23.091" fill="#7b3f00"/><path d="m156.412,145.21l-20.418-4.039c9.299-58.005-25.647-51.861-9.595-83.504-.357,29.308,19.917,17.752,37.59,60.419" fill="#fcd116" stroke="#7b3f00" stroke-linecap="square" stroke-miterlimit="221.186" stroke-width="2.428"/><path id="h" d="m156.408,145.212l1.647-9.138-.378.094c-5.975-24.381-16.082-37.619-23.764-47.988-3.84-5.187-7.105-9.662-8.874-14.516-1.191-3.214-1.607-6.664-1.213-10.07-8.941,25.169,20.828,23.502,12.16,77.58l20.422,4.038Z" fill="#7b3f00" stroke="#7b3f00" stroke-linecap="square" stroke-miterlimit="221.186" stroke-width="1.105"/><path id="i" d="m158.8,135.89c-12.035-49.168-41.037-53.818-32.401-78.223" fill="none" stroke="#7b3f00" stroke-miterlimit="221.186" stroke-width="2.428"/><path id="j" d="m175,175.002l16.328-16.328-106.131-73.476,73.475,106.132,16.328-16.328-89.803-89.804" fill="#fcd116" stroke="#7b3f00" stroke-miterlimit="221.186" stroke-width="2.428"/><path id="k" d="m175,175.002l-16.328,16.328,16.328-16.328-89.803-89.804,73.475,106.132" fill="#7b3f00"/><path d="m182.921,140.792l-11.582-17.294c47.59-34.44,18.536-54.806,52.261-65.831-20.976,20.471,2.652,23.847-15.021,66.514" fill="#fcd116" stroke="#7b3f00" stroke-linecap="square" stroke-miterlimit="221.185" stroke-width="2.428"/><path id="l" d="m182.918,140.791l7.626-5.297-.333-.201c13.015-21.465,15.229-37.973,17.129-50.736.953-6.383,1.808-11.856,3.989-16.539,1.43-3.115,3.576-5.849,6.262-7.978-24.119,11.475-1.891,31.346-46.258,63.456l11.585,17.296Z" fill="#7b3f00" stroke="#7b3f00" stroke-linecap="square" stroke-miterlimit="221.185" stroke-width="1.105"/><path id="m" d="m191.2,135.89c26.257-43.277,9.037-67.072,32.401-78.223" fill="none" stroke="#7b3f00" stroke-miterlimit="221.185" stroke-width="2.428"/><path id="n" d="m175,175.002h23.091l-23.091-127.002-23.091,127.002h23.091V48" fill="#fcd116" stroke="#7b3f00" stroke-miterlimit="221.185" stroke-width="2.428"/><path id="o" d="m175,175.002h-23.091,23.091V48l-23.091,127.002" fill="#7b3f00"/><path d="m204.791,156.413l4.039-20.418c58.004,9.299,51.86-25.647,83.503-9.595-29.307-.357-16.251,19.024-58.918,36.697" fill="#fcd116" stroke="#7b3f00" stroke-linecap="square" stroke-miterlimit="221.185" stroke-width="2.428"/><path id="p" d="m204.789,156.41l9.138,1.647-.094-.378c24.381-5.975,37.619-16.082,47.987-23.764,5.187-3.84,9.662-7.106,14.515-8.874,3.214-1.191,6.664-1.607,10.07-1.213-25.169-8.941-23.502,20.828-77.579,12.16l-4.038,20.422Z" fill="#7b3f00" stroke="#7b3f00" stroke-linecap="square" stroke-miterlimit="221.185" stroke-width="1.105"/><path id="q" d="m214.111,158.801c49.167-12.035,53.817-41.037,78.222-32.401" fill="none" stroke="#7b3f00" stroke-miterlimit="221.185" stroke-width="2.428"/><path id="r" d="m175,175.002l16.328,16.328,73.475-106.132-106.13,73.476,16.328,16.328,89.803-89.804" fill="#fcd116" stroke="#7b3f00" stroke-miterlimit="221.185" stroke-width="2.428"/><path id="s" d="m175,175.002l-16.328-16.328,16.328,16.328,89.803-89.804-106.13,73.476" fill="#7b3f00"/><path d="m209.209,182.923l17.294-11.582c34.44,47.591,54.806,18.536,65.83,52.262-20.47-20.976-24.312,2.497-66.978-15.176" fill="#fcd116" stroke="#7b3f00" stroke-linecap="square" stroke-miterlimit="221.185" stroke-width="2.428"/><path id="t" d="m209.21,182.92l5.297,7.626.201-.333c21.465,13.015,37.972,15.229,50.736,17.129,6.383.953,11.856,1.808,16.539,3.989,3.115,1.43,5.849,3.576,7.978,6.262-11.475-24.119-31.346-1.891-63.455-46.258l-17.295,11.585Z" fill="#7b3f00" stroke="#7b3f00" stroke-linecap="square" stroke-miterlimit="221.185" stroke-width="1.105"/><path id="u" d="m214.111,191.202c43.276,26.257,67.071,9.037,78.222,32.401" fill="none" stroke="#7b3f00" stroke-miterlimit="221.185" stroke-width="2.428"/><path id="v" d="m175,175.002v23.091l127-23.091-127-23.091v23.091h127" fill="#fcd116" stroke="#7b3f00" stroke-miterlimit="221.185" stroke-width="2.428"/><path id="w" d="m175,175.002v-23.091,23.091h127l-127-23.091" fill="#7b3f00"/><path d="m193.588,204.793l20.418,4.039c-9.299,58.005,25.647,51.861,9.595,83.504.357-29.308-18.939-15.733-36.612-58.4" fill="#fcd116" stroke="#7b3f00" stroke-linecap="square" stroke-miterlimit="221.186" stroke-width="2.428"/><path id="x" d="m193.592,204.791l-1.647,9.138.378-.094c5.975,24.381,16.082,37.619,23.764,47.988,3.84,5.187,7.105,9.662,8.874,14.516,1.191,3.214,1.607,6.664,1.213,10.07,8.941-25.169-20.828-23.502-12.16-77.58l-20.422-4.038Z" fill="#7b3f00" stroke="#7b3f00" stroke-linecap="square" stroke-miterlimit="221.186" stroke-width="1.105"/><path id="y" d="m191.2,214.113c12.035,49.168,41.037,53.818,32.401,78.223" fill="none" stroke="#7b3f00" stroke-miterlimit="221.186" stroke-width="2.428"/><path id="z" d="m175,175.002l-16.328,16.328,106.131,73.476-73.475-106.132-16.328,16.328,89.803,89.804" fill="#fcd116" stroke="#7b3f00" stroke-miterlimit="221.186" stroke-width="2.428"/><path id="aa" d="m175,175.002l16.328-16.328-16.328,16.328,89.803,89.804-73.475-106.132" fill="#7b3f00"/><path d="m167.081,209.211l-7.628,5.297.332.2c-13.015,21.463-15.229,37.973-17.13,50.736-.952,6.381-1.806,11.856-3.99,16.54-1.431,3.116-3.577,5.85-6.264,7.979,24.119-11.474,1.893-31.347,46.258-63.456l-11.58-17.296Z" fill="#7b3f00" stroke="#7b3f00" stroke-miterlimit="217.135" stroke-width="1.105"/><path d="m158.8,214.115c-26.257,43.278-9.037,67.072-32.4,78.221" fill="none" stroke="#7b3f00" stroke-miterlimit="217.135" stroke-width="2.428"/><path d="m175,175h-23.091l23.091,127,23.091-127h-23.091v127" fill="#fcd116" stroke="#7b3f00" stroke-miterlimit="217.135" stroke-width="2.428"/><path d="m175,175h23.091-23.091v127l23.091-127" fill="#7b3f00"/><path d="m175,175l16.329,16.329-16.329-16.329-89.804,89.805,106.128-73.476" fill="#7b3f00"/><circle cx="175" cy="175" r="42.333" fill="#fcd116" stroke="#7b3f00" stroke-miterlimit="43.427" stroke-width="2.428"/><path d="m145.054,158.851c4.714-5.771,13.803-7.795,20.063-3.238,2.014,1.457,3.621,3.346,4.671,5.491-2.8-2.117-5.473-3.94-8.756-4.815-5.436-1.453-10.91.287-15.978,2.563h0Z" fill="#7b3f00"/><path d="m152.28,158.759c1.997-1.778,5.376-1.913,7.424-.153-2.471-.721-4.972-.595-7.424.153h0Z" fill="#7b3f00"/><path d="m167.491,164.314c-2.627-2.232-5.965-3.955-9.413-3.945-3.391.073-6.432,1.993-9.055,3.995,0,.001.072-1.258.072-1.257,1.158,1.33,2.102,2.805,2.777,4.466-.819-.428-1.532-.95-2.215-1.498-.918-.72-1.754-1.575-2.488-2.474.934-.808,1.863-1.639,2.899-2.289,2.368-1.551,5.194-2.608,8.065-2.368,3.748.354,7.046,2.55,9.357,5.37h0Z" fill="#7b3f00"/><path d="m161.846,168.714s4.125-.354,5.645-2.026l-1.594-.456s-1.19,1.519-4.051,2.481Z" fill="#7b3f00"/><path d="m157.6,159.887c-2.723,0-4.93,2.207-4.93,4.93s2.207,4.93,4.93,4.93,4.93-2.207,4.93-4.93-2.207-4.93-4.93-4.93Zm1.473.975c1.38.49,2.426,1.68,2.708,3.144l-1.918.165c-.212-.747-.798-1.332-1.541-1.552l.75-1.757Zm-4.119,2.548c0-.911.738-1.649,1.649-1.649s1.649.738,1.649,1.649-.738,1.649-1.649,1.649-1.649-.738-1.649-1.649Zm2.718,5.584c-.673,0-1.31-.157-1.874-.443l.747-1.76c.333.19.717.3,1.127.3.307,0,.6-.059.864-.168l1.31,1.46c-.633.388-1.376.611-2.174.611Zm2.726-1.01l-1.274-1.416c.498-.41.82-1.032.831-1.724l1.899-.161c.004.04.004.084.004.124,0,1.27-.567,2.408-1.46,3.177Z" fill="#7b3f00"/><path d="m183.227,182.422c-.717,1.343-2.057.838-3.985,2.221-1.929,1.387-2.653,2.141-4.242,2.141s-2.313-.754-4.242-2.141c-1.929-1.383-3.268-.878-3.985-2.221-1.211-2.269,2.558-7.675,2.558-7.675,0,0-.417,1.72-.878,2.935-.461,1.219-1.68,4.739,1.091,4.278,1.987-.329,2.598-1.299,2.683-3.901,0,0-.157,7.298,2.774,6.88,2.931.417,2.774-6.88,2.774-6.88.084,2.602.695,3.572,2.683,3.901,2.77.461,1.552-3.06,1.091-4.278-.461-1.215-.878-2.935-.878-2.935,0,0,3.77,5.406,2.558,7.675Z" fill="#7b3f00"/><path d="m158.632,186.996c1.368-.418,2.528-1.199,2.925-2.579.461-1.387,1.819-3.035,3.442-2.66-1.467.349-2.16,1.657-2.627,2.954-.088.236-.211.584-.366.822-.649,1.148-2.14,1.717-3.373,1.463h0Z" fill="#7b3f00"/><path d="m173.318,187.11s-.906.323-1.183.906-.108,1.521-.737,2.32c0,0,1.103-.663,1.306-1.613.2-.937.614-1.613.614-1.613Z" fill="#7b3f00"/><path d="m175.399,203.439s2.376,1.888,2.376,3.809-.521,5.371-.521,5.371c0,0,2.767-2.865,2.767-5.143s-1.66-4.362-4.622-4.037Z" fill="#7b3f00"/><path d="m191.368,186.996c-1.233.254-2.724-.315-3.373-1.463-.156-.238-.279-.586-.366-.822-.468-1.297-1.161-2.605-2.627-2.954,1.624-.374,2.98,1.272,3.442,2.66.397,1.38,1.557,2.161,2.925,2.579h0Z" fill="#7b3f00"/><path d="m176.682,187.11s.906.323,1.183.906.108,1.521.737,2.32c0,0-1.103-.663-1.306-1.613-.2-.937-.614-1.613-.614-1.613Z" fill="#7b3f00"/><path d="m191.641,191.11c-.238,2.412-.066,2.921-2.17,2.921s-9.574-2.953-11.104-2.921c-1.526.033-1.899,1.46-3.367,1.46s-1.841-1.427-3.367-1.46c-1.53-.033-8.996,2.921-11.104,2.921s-1.932-.509-2.17-2.921c0,0-.165,2.862-1.548,4.703,0,0,1.226-1.383,1.683-1.087.454.296,4.117,2.251,6.738,4.198,2.62,1.943,5.753,3.136,9.768,3.136s7.148-1.193,9.768-3.136c2.62-1.947,6.284-3.901,6.738-4.198.457-.296,1.683,1.087,1.683,1.087-1.383-1.841-1.548-4.703-1.548-4.703Zm-16.641,8.249c-7.631,0-9.647-3.136-9.647-3.136h19.294s-2.017,3.136-9.647,3.136Z" fill="#7b3f00"/><path d="m204.946,158.851c-5.066-2.275-10.543-4.016-15.978-2.563-3.284.875-5.955,2.698-8.756,4.815,1.05-2.145,2.657-4.034,4.671-5.491,6.259-4.557,15.351-2.532,20.063,3.238h0Z" fill="#7b3f00"/><path d="m197.72,158.759c-2.453-.748-4.953-.874-7.424-.153,2.048-1.76,5.427-1.624,7.424.153h0Z" fill="#7b3f00"/><path d="m182.509,164.314c2.311-2.82,5.609-5.016,9.357-5.37,2.872-.239,5.697.818,8.065,2.368,1.035.649,1.967,1.482,2.899,2.289-.735.899-1.568,1.753-2.488,2.474-.683.548-1.396,1.07-2.215,1.498.675-1.662,1.619-3.137,2.777-4.467,0,0,.073,1.259.072,1.257-2.622-2.001-5.664-3.921-9.055-3.995-3.449-.01-6.785,1.712-9.413,3.945h0Z" fill="#7b3f00"/><path d="m188.154,168.714s-4.125-.354-5.645-2.026l1.594-.456s1.19,1.519,4.051,2.481Z" fill="#7b3f00"/><path d="m192.4,159.887c-2.723,0-4.93,2.207-4.93,4.93s2.207,4.93,4.93,4.93,4.93-2.207,4.93-4.93-2.207-4.93-4.93-4.93Zm1.473.975c1.38.49,2.426,1.68,2.708,3.144l-1.918.165c-.212-.747-.798-1.332-1.541-1.552l.75-1.757Zm-4.119,2.548c0-.911.738-1.649,1.649-1.649s1.649.738,1.649,1.649-.738,1.649-1.649,1.649-1.649-.738-1.649-1.649Zm2.718,5.584c-.673,0-1.31-.157-1.874-.443l.747-1.76c.333.19.717.3,1.127.3.307,0,.6-.059.864-.168l1.31,1.46c-.633.388-1.376.611-2.174.611Zm2.726-1.01l-1.274-1.416c.498-.41.82-1.032.831-1.724l1.899-.161c.004.04.004.084.004.124,0,1.27-.567,2.408-1.46,3.177Z" fill="#7b3f00"/></svg>